<svg xmlns="http://www.w3.org/2000/svg" viewBox="0 0 1000 393"><g id="Layer_2_copy" data-name="Layer 2 copy"><path d="M89.16,182.5s3.18-10.24-9.18-12.36C80,170.14,78.92,182.85,89.16,182.5Z"/><path d="M147.53,161s-10.18,2.75-5.44,14.13C142.09,175.13,153.21,169.32,147.53,161Z"/><path d="M133.44,165.64s-9.83,2.65-5.25,13.64C128.19,179.28,138.92,173.67,133.44,165.64Z"/><path d="M119.66,172.68S109,175.55,114,187.46C114,187.46,125.6,181.39,119.66,172.68Z"/><path d="M105.88,173.44s-10-2.21-11.18,9.5C94.7,182.94,107,183,105.88,173.44Z"/><path d="M109,166.67s-6-8.17-14.47-.22C94.55,166.45,103.62,174.46,109,166.67Z"/><path d="M114.28,158.29s-4.26-9.65-14.64-3.5C99.64,154.79,107,165,114.28,158.29Z"/><path d="M101.88,147.5s-4.25-9.66-14.64-3.51C87.24,144,94.63,154.17,101.88,147.5Z"/><path d="M99.63,129s-8.09-6.91-14.83,3.22C84.8,132.2,96,138.21,99.63,129Z"/><path d="M146,144.18s-8.08-6.91-14.83,3.22C131.19,147.4,142.36,153.41,146,144.18Z"/><path d="M135.34,134.33s-9.65-3.72-12.55,7.74C122.79,142.07,135,144,135.34,134.33Z"/><path d="M122.17,130.71s-9.69-3.74-12.61,7.78C109.56,138.49,121.79,140.4,122.17,130.71Z"/><path d="M110.39,121.94s-2.27-10-13.3-6C97.09,115.9,102.26,127,110.39,121.94Z"/><path d="M132.23,116.45s-7.17-7.28-14.46,1.86C117.77,118.31,128,125,132.23,116.45Z"/><path d="M122,108s-7.37-7.48-14.86,1.91C107.17,109.94,117.64,116.8,122,108Z"/><path d="M111.89,99.92s-5.13-9-14.64-1.93C97.25,98,105.49,107.17,111.89,99.92Z"/><path d="M165.58,134.47s-1.67-10.45-13.31-7.12C152.27,127.35,156.85,139.11,165.58,134.47Z"/><path d="M160.92,120.33s-1.6-10-12.78-6.84C148.14,113.49,152.54,124.78,160.92,120.33Z"/><path d="M156.78,104.7s-6.59-8-14.79.56C142,105.26,151.68,112.94,156.78,104.7Z"/><path d="M143.58,97.1s-6.58-8-14.79.56C128.79,97.66,138.48,105.34,143.58,97.1Z"/><path d="M130,88s-4.76-8.71-14-2.11C116,85.9,123.71,94.85,130,88Z"/><path d="M192.89,75.59s5.92-8-3.93-13.59C189,62,184.07,72.77,192.89,75.59Z"/><path d="M167.62,107.46s9.4,3.18,11.72-7.93C179.34,99.53,167.59,98.19,167.62,107.46Z"/><path d="M168,92.38s8,5.79,13.53-4.15C181.49,88.23,170.65,83.51,168,92.38Z"/><path d="M174.31,79.91S184.23,80,183,68.7C183,68.7,171.37,71.12,174.31,79.91Z"/><path d="M165.86,80.59s7-7-1.83-14C164,66.56,157.56,76.46,165.86,80.59Z"/><path d="M154.26,90.59s7.05-7-1.83-14C152.43,76.56,146,86.46,154.26,90.59Z"/><path d="M140.26,84.59s7.06-7-1.83-14C138.43,70.56,132,80.46,140.26,84.59Z"/><path d="M116.72,217.61s-4.67-9.19-14.61-2.37C102.11,215.24,109.89,224.72,116.72,217.61Z"/><path d="M102,222s-1.31-10.42-13.19-7.3C88.79,214.73,93,226.5,102,222Z"/><path d="M88.26,224.68s-3-10.37-14.54-5.35C73.72,219.33,79.83,230.62,88.26,224.68Z"/><path d="M97.66,231s-8.23-6.74-14.78,3.84C82.88,234.79,94.17,240.5,97.66,231Z"/><path d="M108.57,230.74s-9.89,0-8.39,11.45C100.18,242.19,111.67,239.66,108.57,230.74Z"/><path d="M122.88,225.12s-9.6,1.34-6.57,12.27C116.31,237.39,127.11,233.36,122.88,225.12Z"/><path d="M134.16,214.59s-9.13,5.08-1.83,14.89C132.33,229.48,141.62,221.22,134.16,214.59Z"/><path d="M145.76,222.18s-9.13,5.09-1.83,14.9C143.93,237.08,153.22,228.82,145.76,222.18Z"/><path d="M153.16,229.72s-7,8.07,3.43,14.93C156.59,244.65,162.63,233.48,153.16,229.72Z"/><path d="M163.63,235.92s-3.08,9.93,8.91,12C172.54,247.91,173.56,235.58,163.63,235.92Z"/><path d="M175.41,232.88s3.83,9.33,14.07,3.47C189.48,236.35,182.64,226.49,175.41,232.88Z"/><path d="M167.85,226.58s8.41,5.81,13.85-4.83C181.7,221.75,170.44,217.17,167.85,226.58Z"/><path d="M154.4,216.32s4.72,9,14.48,2.18C168.88,218.5,161.07,209.22,154.4,216.32Z"/><path d="M148.78,202.41s2.25,10.24,13.78,6.06C162.56,208.47,157.31,197.15,148.78,202.41Z"/><path d="M88.35,192s-4.22-9.58-14.68-3.23C73.67,188.81,81,198.86,88.35,192Z"/><path d="M97.74,197.86s-9.19-5.45-14.1,6C83.64,203.9,95.72,207.86,97.74,197.86Z"/><path d="M111,200.69s-9.66-2.39-11,9.17C100.06,209.86,111.89,210.16,111,200.69Z"/><path d="M121.29,198.38s-9.88.84-7.4,12.16C113.89,210.54,125.15,207,121.29,198.38Z"/><path d="M194.53,222.3s.2,24.81-24.6,35.21c0,0-6.4,4-38.39-.8,0,0-19.28-1.89-27.33,2.78a1.11,1.11,0,0,0-.54,1.16l.13.82a.82.82,0,0,0,1,.67,109.52,109.52,0,0,1,15.77-2c10.68-.31,16.28,1.66,26.93,2.6a121.48,121.48,0,0,0,24.62-.4s13-3.2,17.44-11.2c0,0-2.4,13.6-18.8,21.19a37.08,37.08,0,0,1-10.14,2.85c-6.25.94-12.61,0-25.28-2.85-9.19-2.09-10.53-3-16-3.4a53.94,53.94,0,0,0-11.75.49,1.79,1.79,0,0,0-1.49,2.11l.09.44a1.68,1.68,0,0,0,2,1.3,38.74,38.74,0,0,1,9.11-1.14,41.32,41.32,0,0,1,8,.8,50,50,0,0,1,9.5,2.78c-3.73,1.68-10.19,5.07-15.1,10.82a30.24,30.24,0,0,0-3.6,5.2,27.73,27.73,0,0,0-3,9.4s.59.8,2.3,0a31.33,31.33,0,0,1,4.75-10,33.82,33.82,0,0,1,18.75-12.6,78.49,78.49,0,0,0,22.79.4c6.38-.82,12.09-1.55,18.16-5,9.32-5.36,13.92-14,16-19.16a38.4,38.4,0,0,1-4.3,13.49c-.49.91-8,14.3-22.7,18.7-2.19.66-6,1.24-13.6,2.4-5,.76-9.12,1.27-12,1.6A29.65,29.65,0,0,0,132,293.5a30.76,30.76,0,0,0-14.05,13.2s-1.2,2.8,2,2a27.12,27.12,0,0,1,22.4-14.4q5.5-.78,11.39-1.4,6.09-.63,11.8-1s-16.79,14.4-19.59,24.8c0,0,.87,1.6,2.83,0a65.78,65.78,0,0,1,4.88-7.55,60.58,60.58,0,0,1,14.48-13.85c2.79-1.87,5.6-3.38,6-3.6,3.85-2.06,5.18-2.32,7.65-3.75a29.62,29.62,0,0,0,7.35-6.05s-10,24.62-26.59,35.51c0,0-1.41.89,1.39,2.89a71.46,71.46,0,0,0,9.4-7.8,72.41,72.41,0,0,0,13-17.4s-3.2,25.2,3.6,35.19a2,2,0,0,0,2.2.6,2.06,2.06,0,0,0,1.4-1.79s-13.2-21.46,6.8-61.13c20,39.67,6.8,61.13,6.8,61.13a2.06,2.06,0,0,0,3.6,1.19c6.79-10,3.6-35.19,3.6-35.19a71.83,71.83,0,0,0,22.39,25.2c2.8-2,1.39-2.89,1.39-2.89-16.6-10.89-26.58-35.51-26.58-35.51a29.79,29.79,0,0,0,7.34,6.05c2.48,1.43,3.81,1.69,7.65,3.75.41.22,3.22,1.73,6,3.6A60.2,60.2,0,0,1,247,309.15a63.19,63.19,0,0,1,4.88,7.55c2,1.6,2.84,0,2.84,0-2.8-10.4-19.6-24.8-19.6-24.8q5.72.38,11.8,1,5.9.62,11.4,1.4a27.12,27.12,0,0,1,22.4,14.4c3.19.8,2-2,2-2a30.67,30.67,0,0,0-14-13.2,29.69,29.69,0,0,0-11.35-2.6c-2.87-.33-7-.84-12-1.6-7.61-1.16-11.41-1.74-13.6-2.4-14.7-4.4-22.2-17.79-22.69-18.7a38.2,38.2,0,0,1-4.3-13.49c2.11,5.14,6.71,13.8,16,19.16,6.06,3.48,11.77,4.21,18.15,5a78.56,78.56,0,0,0,22.8-.4,33.88,33.88,0,0,1,18.75,12.6,31.77,31.77,0,0,1,4.75,10c1.7.8,2.29,0,2.29,0a27.73,27.73,0,0,0-3-9.4,29,29,0,0,0-3.6-5.2c-4.91-5.75-11.36-9.14-15.1-10.82a50.31,50.31,0,0,1,9.51-2.78,41.29,41.29,0,0,1,8-.8,38.62,38.62,0,0,1,9.11,1.14,1.69,1.69,0,0,0,2.05-1.3l.08-.44a1.78,1.78,0,0,0-1.48-2.11,54,54,0,0,0-11.76-.49c-5.43.38-6.78,1.31-16,3.4-12.67,2.89-19,3.79-25.27,2.85a37.24,37.24,0,0,1-10.15-2.85c-16.39-7.59-18.79-21.19-18.79-21.19,4.4,8,17.44,11.2,17.44,11.2a121.39,121.39,0,0,0,24.61.4c10.65-.94,16.25-2.91,26.94-2.6a109.72,109.72,0,0,1,15.77,2,.81.81,0,0,0,1-.67l.14-.82a1.13,1.13,0,0,0-.54-1.16c-8.06-4.67-27.33-2.78-27.33-2.78-32,4.8-38.4.8-38.4.8-24.79-10.4-25.59-33.6-25.59-33.6,8.88-16.07,8.62-29,6.4-37.71-4.67,4.39-6.34,8.42-7,11.3-.61,2.67-.22,3.77-1.2,8.4a32.64,32.64,0,0,1-2.8,8.8A26,26,0,0,1,194.53,222.3Z"/><path d="M273.72,194.05a37.54,37.54,0,0,0,22.38,1.31c.53-.14,1.07-.28,1.61-.44a41.62,41.62,0,0,0,14.2-7.4c.4-3.2-2.8-2.4-2.8-2.4-5.56,3.88-15,8.92-25.8,7.4-7.58-1.07-12.95-5-21.59-11.2-9.09-6.57-11.72-10.9-22.35-17.65a109,109,0,0,0-10.25-5.75,77,77,0,0,1,25.3.45c2.59.49,5,1.09,7.3,1.75a95.43,95.43,0,0,1,21.59,9.7,92.68,92.68,0,0,1,7.8,5.3c2-.4,1.6-1.6,1.6-1.6-3.6-7.6-28.79-16-28.79-16,2.92.19,18.2.9,29-10.2a32.55,32.55,0,0,0,7-11,2.77,2.77,0,0,0-4,0,29.79,29.79,0,0,1-32.59,17.79,93.07,93.07,0,0,0-16-1.77c-3.15-.07-6.11,0-8.84.23,6.1-1,16.29-17.05,16.29-17.05,20-12.8,42.79-5.48,42.79-5.48a2.82,2.82,0,0,0,0-3.32,62.34,62.34,0,0,0-41.59,4.4q2.5-5.5,5-11c1.55-3.26,5.94-11.29,15.2-15.6a29.42,29.42,0,0,1,8-2.4,1.64,1.64,0,0,0,0-3.2,28.21,28.21,0,0,0-7.19,1.6c-7.48,2.72-11.82,7.91-14.3,11a41.86,41.86,0,0,0-6.7,11.65c-3.2,6.8-9.6,15.2-9.6,15.2-10,14.79-21.2,12.79-21.2,12.79,4.4-3.2,8-22,8-22,4-20.4,9.6-26,9.6-26,10.4-13.6,24-13,24-13a2.4,2.4,0,0,0,0-3c-16-.8-26.4,12.4-26.4,12.4a21.17,21.17,0,0,0-9.6-19.2c-3.6-.8-2.4,2-2.4,2a18.39,18.39,0,0,1,6,7.24c2.73,6.52,2.55,11.31,1.8,14.56-.66,2.89-1.72,4.36-3.6,9.6a91,91,0,0,0-3,10.2,49.27,49.27,0,0,0-5.8-11.4c-5.2-7.56-8.92-8.27-11.19-14.8a41.23,41.23,0,0,1-2-10.4c-.2-4.41.47-8.2-1.44-9.3a3.09,3.09,0,0,0-2.36-.1c-.06,2.13,0,5.09.2,8.6a57.14,57.14,0,0,0,1.6,11.6c2,6.9,5.08,6.37,11.19,16.8,4.25,7.24,5.11,11.51,5.4,13.35a22.56,22.56,0,0,1-.2,9.85,20.51,20.51,0,0,1-6.4,10.39,16.29,16.29,0,0,1-8.54,4c-1.76.23-3.82.49-5.45-.84-2.3-1.88-1.86-5.41-1.8-5.8,6-2.8,4.8-14,4.8-14-.35-3.62-1.73-5.54-3.2-6.54a7.61,7.61,0,0,0-3.66-1.1c-.28,0-.52,0-.68,0a7.66,7.66,0,0,0-3.67,1.1c-1.46,1-2.85,2.92-3.19,6.54,0,0-1.2,11.19,4.8,14,0,.39.5,3.92-1.8,5.8-1.63,1.33-3.7,1.07-5.46.84a16.37,16.37,0,0,1-8.54-4,20.58,20.58,0,0,1-6.4-10.39,22.72,22.72,0,0,1-.2-9.85c.3-1.84,1.15-6.11,5.4-13.35,6.11-10.43,9.21-9.9,11.2-16.8a57.85,57.85,0,0,0,1.6-11.6c.25-3.51.25-6.47.2-8.6a3.11,3.11,0,0,0-2.37.1c-1.9,1.1-1.24,4.89-1.43,9.3a41.23,41.23,0,0,1-2,10.4c-2.28,6.53-6,7.24-11.2,14.8a49.67,49.67,0,0,0-5.8,11.4,91,91,0,0,0-3-10.2c-1.87-5.24-2.93-6.71-3.6-9.6-.74-3.25-.93-8,1.8-14.56a18.39,18.39,0,0,1,6-7.24s1.2-2.8-2.4-2a21.17,21.17,0,0,0-9.6,19.2s-10.39-13.2-26.39-12.4a2.4,2.4,0,0,0,0,3s13.6-.56,24,13c0,0,5.6,5.6,9.6,26,0,0,3.6,18.79,8,22,0,0-11.2,2-21.2-12.79,0,0-6.39-8.4-9.59-15.2a42.11,42.11,0,0,0-6.7-11.65c-2.49-3-6.82-8.23-14.3-11a28.27,28.27,0,0,0-7.2-1.6,1.64,1.64,0,0,0,0,3.2,29.48,29.48,0,0,1,8,2.4c9.26,4.31,13.65,12.34,15.2,15.6l5,11a62.36,62.36,0,0,0-41.6-4.4,2.82,2.82,0,0,0,0,3.32s22.8-7.32,42.8,5.48c0,0,10.19,16.1,16.29,17.05-2.74-.21-5.7-.3-8.85-.23a92.94,92.94,0,0,0-16,1.77,29.79,29.79,0,0,1-32.6-17.79,2.77,2.77,0,0,0-4,0,32.87,32.87,0,0,0,7,11c10.79,11.1,26.07,10.39,29,10.2,0,0-25.2,8.4-28.8,16,0,0-.4,1.2,1.6,1.6,2.35-1.78,4.95-3.56,7.8-5.3a95.48,95.48,0,0,1,21.6-9.7c2.27-.66,4.7-1.26,7.3-1.75a77,77,0,0,1,25.29-.45,110.3,110.3,0,0,0-10.25,5.75c-10.62,6.75-13.26,11.08-22.34,17.65-8.65,6.25-14,10.13-21.6,11.2-10.81,1.52-20.23-3.52-25.8-7.4,0,0-3.19-.8-2.79,2.4a41.56,41.56,0,0,0,14.19,7.4c.55.16,1.09.3,1.62.44a37.5,37.5,0,0,0,22.37-1.31,44.23,44.23,0,0,0,4.41-1.93,45.35,45.35,0,0,0,11.4-8.2c-2.76,5.26-4.78,9.67-6.15,12.8-2.06,4.71-2.51,6.22-4.05,9a50.17,50.17,0,0,1-8.4,10.8c-10.78,10-31.47,8-33,7.8A1.27,1.27,0,0,0,90,225.42c0,.34.15.78.79,1.29,2.59.6,18.45,4,33.4-6.2a43.16,43.16,0,0,0,17.6-26.79c-.21,1.71-2.25,21.22,12.06,33.1a34.23,34.23,0,0,0,18.13,7.49,2.51,2.51,0,0,0,.4-3.6,32.13,32.13,0,0,1-14.14-6.24c-9.66-7.57-11.63-18.39-12.05-21.16-.28-3-1.1-15.48,7.61-26.66,11.58-14.84,29.89-14.41,31.78-14.33l9.09,11.88s-14.9,18.12-.59,46.86h0v0h0a11.53,11.53,0,0,0,1.26-1.26c3.34-3.87,4.09-8.82,5-15.75.23-1.76.29-2.65.64-4.5a39.16,39.16,0,0,1,1.6-6.4,31.06,31.06,0,0,1,7.31-11.66l.11-.11a35.17,35.17,0,0,0-2.37-4.83c-4.14,2.6-7.25,13.65-7.25,13.65.6-10.14,5.7-16,5.7-16l9.1-11.88c1.88-.08,20.2-.51,31.77,14.33,8.71,11.18,7.89,23.69,7.62,26.66-.42,2.77-2.39,13.59-12.06,21.16a32,32,0,0,1-14.14,6.24,2.51,2.51,0,0,0,.4,3.6,34.23,34.23,0,0,0,18.14-7.49c14.31-11.88,12.27-31.39,12.06-33.1a43.11,43.11,0,0,0,17.6,26.79c15,10.2,30.8,6.8,33.39,6.2.64-.51.83-1,.79-1.29a1.27,1.27,0,0,0-1.19-1.11c-1.52.17-22.21,2.23-33-7.8a50.17,50.17,0,0,1-8.4-10.8c-1.55-2.77-2-4.28-4.05-9-1.37-3.13-3.4-7.54-6.15-12.8a45,45,0,0,0,15.8,10.13Z"/><path d="M209.84,181.44l.11-.09v0Z"/><path d="M195.29,219.75A11.53,11.53,0,0,1,194,221h0v0A11.75,11.75,0,0,0,195.29,219.75Z"/><path d="M311.5,182.5s-3.18-10.24,9.18-12.36C320.68,170.14,321.74,182.85,311.5,182.5Z"/><path d="M253.12,161s10.19,2.75,5.44,14.13C258.56,175.13,247.44,169.32,253.12,161Z"/><path d="M267.22,165.64s9.82,2.65,5.25,13.64C272.47,179.28,261.74,173.67,267.22,165.64Z"/><path d="M281,172.68s10.65,2.87,5.69,14.78C286.68,187.46,275.05,181.39,281,172.68Z"/><path d="M294.77,173.44s10.05-2.21,11.19,9.5C306,182.94,293.69,183,294.77,173.44Z"/><path d="M291.63,166.67s6-8.17,14.48-.22C306.11,166.45,297,174.46,291.63,166.67Z"/><path d="M286.38,158.29s4.25-9.65,14.64-3.5C301,154.79,293.63,165,286.38,158.29Z"/><path d="M298.78,147.5s4.25-9.66,14.64-3.51C313.42,144,306,154.17,298.78,147.5Z"/><path d="M301,129s8.08-6.91,14.82,3.22C315.85,132.2,304.69,138.21,301,129Z"/><path d="M254.63,144.18s8.09-6.91,14.83,3.22C269.46,147.4,258.3,153.41,254.63,144.18Z"/><path d="M265.32,134.33s9.64-3.72,12.55,7.74C277.87,142.07,265.69,144,265.32,134.33Z"/><path d="M278.48,130.71s9.7-3.74,12.62,7.78C291.1,138.49,278.86,140.4,278.48,130.71Z"/><path d="M290.26,121.94s2.28-10,13.3-6C303.56,115.9,298.4,127,290.26,121.94Z"/><path d="M268.42,116.45s7.18-7.28,14.47,1.86C282.89,118.31,272.7,125,268.42,116.45Z"/><path d="M278.63,108s7.36-7.48,14.85,1.91C293.48,109.94,283,116.8,278.63,108Z"/><path d="M288.77,99.92s5.13-9,14.63-1.93C303.4,98,295.16,107.17,288.77,99.92Z"/><path d="M235.07,134.47s1.67-10.45,13.32-7.12C248.39,127.35,243.81,139.11,235.07,134.47Z"/><path d="M239.73,120.33s1.61-10,12.78-6.84C252.51,113.49,248.12,124.78,239.73,120.33Z"/><path d="M243.88,104.7s6.58-8,14.79.56C258.67,105.26,249,112.94,243.88,104.7Z"/><path d="M257.07,97.1s6.59-8,14.8.56C271.87,97.66,262.17,105.34,257.07,97.1Z"/><path d="M270.69,88s4.76-8.71,14-2.11C284.68,85.9,276.94,94.85,270.69,88Z"/><path d="M207.76,75.59s-5.92-8,3.94-13.59C211.7,62,216.59,72.77,207.76,75.59Z"/><path d="M233,107.46s-9.4,3.18-11.73-7.93C221.31,99.53,233.06,98.19,233,107.46Z"/><path d="M232.7,92.38s-8,5.79-13.53-4.15C219.17,88.23,230,83.51,232.7,92.38Z"/><path d="M226.34,79.91s-9.92.07-8.64-11.21C217.7,68.7,229.28,71.12,226.34,79.91Z"/><path d="M234.8,80.59s-7.06-7,1.83-14C236.63,66.56,243.09,76.46,234.8,80.59Z"/><path d="M246.4,90.59s-7.06-7,1.83-14C248.23,76.56,254.69,86.46,246.4,90.59Z"/><path d="M260.4,84.59s-7.06-7,1.83-14C262.23,70.56,268.69,80.46,260.4,84.59Z"/><path d="M283.94,217.61s4.66-9.19,14.61-2.37C298.55,215.24,290.76,224.72,283.94,217.61Z"/><path d="M298.67,222s1.32-10.42,13.2-7.3C311.87,214.73,307.67,226.5,298.67,222Z"/><path d="M312.39,224.68s3-10.37,14.54-5.35C326.93,219.33,320.83,230.62,312.39,224.68Z"/><path d="M303,231s8.24-6.74,14.79,3.84C317.78,234.79,306.48,240.5,303,231Z"/><path d="M292.09,230.74s9.88,0,8.38,11.45C300.47,242.19,289,239.66,292.09,230.74Z"/><path d="M277.78,225.12s9.6,1.34,6.57,12.27C284.35,237.39,273.54,233.36,277.78,225.12Z"/><path d="M266.5,214.59s9.12,5.08,1.83,14.89C268.33,229.48,259,221.22,266.5,214.59Z"/><path d="M254.9,222.18s9.12,5.09,1.83,14.9C256.73,237.08,247.44,228.82,254.9,222.18Z"/><path d="M247.5,229.72s7,8.07-3.44,14.93C244.06,244.65,238,233.48,247.5,229.72Z"/><path d="M237,235.92s3.08,9.93-8.9,12C228.12,247.91,227.09,235.58,237,235.92Z"/><path d="M225.24,232.88s-3.82,9.33-14.06,3.47C211.18,236.35,218,226.49,225.24,232.88Z"/><path d="M232.81,226.58s-8.41,5.81-13.85-4.83C219,221.75,230.22,217.17,232.81,226.58Z"/><path d="M246.25,216.32s-4.72,9-14.47,2.18C231.78,218.5,239.59,209.22,246.25,216.32Z"/><path d="M251.88,202.41s-2.25,10.24-13.79,6.06C238.09,208.47,243.34,197.15,251.88,202.41Z"/><path d="M312.31,192s4.21-9.58,14.67-3.23C327,188.81,319.62,198.86,312.31,192Z"/><path d="M302.91,197.86s9.2-5.45,14.1,6C317,203.9,304.93,207.86,302.91,197.86Z"/><path d="M289.64,200.69s9.65-2.39,11,9.17C300.6,209.86,288.77,210.16,289.64,200.69Z"/><path d="M279.37,198.38s9.88.84,7.4,12.16C286.77,210.54,275.51,207,279.37,198.38Z"/><path d="M381.94,108.32h13q.75.2,10.43,25.34,25.06,62.15,28.07,70.52v.2H421.39q-.61,0-5.59-12.94-5.52-13-7.15-17.65H368.92q-11.71,30.6-12.26,30.59H344.8l-.47-.2,37.13-95.59Zm6.95,17.16-14.58,35.3h28.75l-13.9-35.3Z"/><path d="M421.32,107.84h12.74q.68.41,12.54,22.07,12.12,21.68,13.22,23.24,23.91-43.47,25.54-45.31h12.75c.31.09.47.25.47.48q-.88,1.16-33,56.89v38.7c0,.32-.14.47-.41.47H454.3a.42.42,0,0,1-.48-.47v-38q0-.88-15.81-27.87l-17.17-29.91Z"/><path d="M508.87,108.25h10.9c.32.09.48.25.48.47v62.21q0,14.92,15.81,22.28a34.49,34.49,0,0,0,8.1,1.36q13,0,20.92-12.74a24.35,24.35,0,0,0,2.73-11.65V108.72c0-.31.2-.47.47-.47h10.91c.31.09.47.25.47.47v56.15q0,17.77-5.58,24.39-5.46,10.56-20.85,15.74a38.47,38.47,0,0,1-8.86,1.16h-.68q-18.95,0-30.59-18.06-4.64-7.69-4.64-20.71V108.72C508.51,108.41,508.64,108.25,508.87,108.25Z"/><path d="M639.69,107.84h1.43q19.75,0,32,13-6.67,8.52-8.1,9.75-2.94-4.5-13.5-7.91a59.5,59.5,0,0,0-12.74-1.84q-18.39,0-29.7,17.44a37.76,37.76,0,0,0-4.64,18.06q0,18.33,16.22,29.71,8.45,5.1,16.49,5.11h3.27q12.81,0,25.07-9.54.82,1.29,7.63,9.81-12.25,12.94-32.22,12.94h-.48q-30,0-44.36-26.91a52.08,52.08,0,0,1-4.83-21.32q0-24.19,20.64-39.93A47.5,47.5,0,0,1,639.69,107.84Z"/><path d="M716.2,108.32h13q.75.2,10.42,25.34,25.08,62.15,28.07,70.52v.2H755.65q-.6,0-5.58-12.94-5.52-13-7.16-17.65H703.19q-11.72,30.6-12.27,30.59H679.07l-.48-.2,37.14-95.59Zm6.95,17.16-14.58,35.3h28.76l-13.9-35.3Z"/><path d="M779.16,107.84h41.76q14.79,0,24.6,14.85,3.68,7.77,3.68,14.17,0,15.81-14.85,25.28c-3.14,1.77-5.45,2.7-7,2.79q.2,1.09,22.28,39v.47H836.46q-1-1.22-22.28-38.29H790.54v37.82a.42.42,0,0,1-.48.47h-10.9a.42.42,0,0,1-.48-.47V108.32Q778.76,107.84,779.16,107.84Zm11.38,11.85V154.3H819q14,0,18.12-14.44a22.73,22.73,0,0,1,.21-3q0-10.49-10.91-16a17.19,17.19,0,0,0-5.52-1.16Z"/><path d="M870.87,109.06h55c.32,0,.48.19.48.41v10.9a.42.42,0,0,1-.48.48H882.18v29.71h42.24c.32,0,.48.2.48.47v10.7c0,.27-.16.41-.48.41H882.18V192.6h43.67c.32,0,.48.18.48.41v10.9a.42.42,0,0,1-.48.47h-55a.42.42,0,0,1-.48-.47V109.47A.44.44,0,0,1,870.87,109.06Z"/><path d="M364.38,235.66a18.54,18.54,0,0,1,12.34,4.85V236c0-.16.11-.24.25-.24h5.23q.24,0,.24.24v35.63q0,.21-.24.21H377c-.16,0-.25-.07-.25-.21V267.1h-.1a18.1,18.1,0,0,1-12.38,4.75q-9.58,0-15.4-8.89a16.9,16.9,0,0,1-2.51-8.79v-.83q0-9.24,9-15.31A20.21,20.21,0,0,1,364.38,235.66ZM352,253.58v.35q0,6.9,6.63,10.8a12.38,12.38,0,0,0,6,1.43q6.9,0,11-7.11a13.59,13.59,0,0,0,1.08-5v-.73q0-6.5-6.65-10.57a11.65,11.65,0,0,0-5.09-1.29h-1.19q-6.37,0-10.46,6.63A13,13,0,0,0,352,253.58Z"/><path d="M388.61,235.66h5.58q.38,0,2.27,7.46.45,1.19,5.57,19.73h.25q5.58-15.12,10.32-27.19h5.92c.16,0,.25.09.25.21l-15.9,41.34q-3.48,7.95-9.62,8a13.33,13.33,0,0,1-4.29-.83v-5.48l.11-.24a19.24,19.24,0,0,0,3,.49q4.95,0,7-7.6l-10.7-35.73Z"/><path d="M424.94,235.66H430q.24,0,.24.21v19.84q0,7.11,4.88,9.13a9.87,9.87,0,0,0,4.6,1.08q6.31,0,8.19-5.68a15,15,0,0,0,.14-1.78V235.87a.23.23,0,0,1,.25-.21h5.19q.24,0,.24.21v35.77q0,.21-.24.21h-5.19c-.17,0-.25-.07-.25-.21v-3.59a10.51,10.51,0,0,1-8.33,3.69h-.45A15,15,0,0,1,426.23,265a13.7,13.7,0,0,1-1.54-6.42V235.87A.23.23,0,0,1,424.94,235.66Z"/><path d="M459.9,235.52h5.37a.24.24,0,0,1,.24.25v3.9a18,18,0,0,1,11.61-4c.49.07.73.19.73.35-.16,3.65-.32,5.47-.48,5.47l-.6-.14q-7.87,0-10.91,7.95a10.31,10.31,0,0,0-.35,2.27v20.08q0,.21-.24.21H459.9a.19.19,0,0,1-.21-.21V235.77C459.72,235.6,459.78,235.52,459.9,235.52Z"/><path d="M483.78,235.66h6q.31,0,2.72,6,5.09,11.64,9.48,22.35h.25q.58-1.65,11.88-28.38H520l.24.11Q505.5,270.63,505,271.64h-5.82q-.37,0-5.57-13-7.36-16.67-9.87-22.9Z"/><path d="M539.45,235.66q8.74,0,14.71,7.71a18.25,18.25,0,0,1,3.31,10.31q-.06,3-.45,3h-29.7a13.48,13.48,0,0,0,4.64,7.14,13.73,13.73,0,0,0,7.49,2.37,12.56,12.56,0,0,0,9.62-4.63h6.28q.24,0,.24.24-5.61,10.08-16.38,10.08-8.82,0-14.71-7.81a18.06,18.06,0,0,1-3.21-10.46q0-9,8.05-14.85A18.15,18.15,0,0,1,539.45,235.66ZM527.32,251h24.12a11.75,11.75,0,0,0-3.94-6.41,11,11,0,0,0-7.46-3.07h-1.32q-6.37,0-10.42,6.77A12.42,12.42,0,0,0,527.32,251Z"/><path d="M594,223.08h5.34q.24,0,.24.21v48.35q0,.21-.24.21H594q-.24,0-.24-.21V267.1a18.53,18.53,0,0,1-12.45,4.75q-9.54,0-15.44-8.89a18.08,18.08,0,0,1-2.51-9.28q0-8.88,7.74-14.71a18,18,0,0,1,10.32-3.31,18.22,18.22,0,0,1,12.34,4.85V223.29A.22.22,0,0,1,594,223.08Zm-24.92,30.85q0,6.76,6.76,10.91a13.62,13.62,0,0,0,5.68,1.32q7.43,0,11.3-7.49a11.1,11.1,0,0,0,.94-4.25v-1.33q0-6.1-6.42-10.21a11.75,11.75,0,0,0-5.22-1.4h-1.29q-6.07,0-10.22,6.28A13.56,13.56,0,0,0,569.12,253.93Z"/><path d="M623.6,235.66a18.54,18.54,0,0,1,12.34,4.85V236c0-.16.11-.24.25-.24h5.23q.24,0,.24.24v35.63q0,.21-.24.21h-5.23c-.17,0-.25-.07-.25-.21V267.1h-.1a18.1,18.1,0,0,1-12.38,4.75q-9.59,0-15.4-8.89a16.9,16.9,0,0,1-2.51-8.79v-.83q0-9.24,9-15.31A20.22,20.22,0,0,1,623.6,235.66Zm-12.34,17.92v.35q0,6.9,6.63,10.8a12.38,12.38,0,0,0,6,1.43q6.9,0,11-7.11a13.59,13.59,0,0,0,1.08-5v-.73q0-6.5-6.65-10.57a11.65,11.65,0,0,0-5.09-1.29H623q-6.37,0-10.46,6.63A13,13,0,0,0,611.26,253.58Z"/><path d="M647.83,244.06h15.55c.16,0,.24.09.24.21v6.31a.22.22,0,0,1-.24.25H647.83a.22.22,0,0,1-.24-.25v-6.31A.22.22,0,0,1,647.83,244.06Z"/><path d="M669.79,235.66h5.58q.21.08,3.35,10,.59,2.1,5,15.9h.11q3.11-9.73,8.08-24.93l.21-.14h5q.24,0,4.53,13.56,3,9,3.66,11.51h.14l8.19-25.76.25-.11h5.43c.17,0,.25.09.25.21q-5.68,18.19-11.51,36h-5.12c-.26,0-1.16-2.65-2.72-8q-.69-1.84-5.58-17.08h-.1q-1.08,3.56-8.09,25h-5.09q-.42,0-2-5.69-4.18-12.51-9.76-30.39Z"/><path d="M743.63,235.66q8.75,0,14.71,7.71a18.32,18.32,0,0,1,3.31,10.31c0,2-.2,3-.46,3h-29.7a13.54,13.54,0,0,0,4.64,7.14,13.74,13.74,0,0,0,7.5,2.37,12.59,12.59,0,0,0,9.62-4.63h6.27c.16,0,.25.1.25.24q-5.62,10.08-16.39,10.08-8.82,0-14.71-7.81a18.06,18.06,0,0,1-3.21-10.46q0-9,8.06-14.85A18.1,18.1,0,0,1,743.63,235.66ZM731.49,251h24.13a11.81,11.81,0,0,0-3.94-6.41,11.06,11.06,0,0,0-7.46-3.07h-1.33q-6.37,0-10.42,6.77A13,13,0,0,0,731.49,251Z"/><path d="M767.82,222.9h5.58c.16,0,.24.11.24.25v48.66a.22.22,0,0,1-.24.25h-5.58a.23.23,0,0,1-.25-.25V223.15C767.6,223,767.68,222.9,767.82,222.9Z"/><path d="M780.06,222.9h5.57c.17,0,.25.11.25.25v48.66a.22.22,0,0,1-.25.25h-5.57a.22.22,0,0,1-.25-.25V223.15C779.83,223,779.91,222.9,780.06,222.9Z"/><path d="M793.41,235.66h5.12q.21,0,.21.21v3.59a11,11,0,0,1,8.68-3.69h.11a15,15,0,0,1,13,6.51q1.78,2.63,1.78,8.44v20.92q0,.21-.24.21H816.8c-.17,0-.25-.07-.25-.21v-21q0-6-6.27-8.44a6.58,6.58,0,0,0-2.37-.35h-.73a8.57,8.57,0,0,0-6.07,2.83,9.55,9.55,0,0,0-2.37,6.79v20.19a.19.19,0,0,1-.21.21h-5.12c-.17,0-.25-.07-.25-.21V235.87A.23.23,0,0,1,793.41,235.66Z"/><path d="M846.36,235.66q8.75,0,14.71,7.71a18.25,18.25,0,0,1,3.31,10.31q-.07,3-.45,3h-29.7a13.52,13.52,0,0,0,4.63,7.14,13.79,13.79,0,0,0,7.5,2.37,12.58,12.58,0,0,0,9.62-4.63h6.28q.24,0,.24.24-5.61,10.08-16.38,10.08-8.83,0-14.72-7.81a18.12,18.12,0,0,1-3.2-10.46q0-9,8-14.85A18.15,18.15,0,0,1,846.36,235.66ZM834.23,251h24.12a11.81,11.81,0,0,0-3.94-6.41,11.06,11.06,0,0,0-7.46-3.07h-1.32q-6.39,0-10.43,6.77A13,13,0,0,0,834.23,251Z"/><path d="M880.28,235.66q8.75,0,13.07,8.65l-4.88,2.75a10.77,10.77,0,0,0-4.74-5,7.1,7.1,0,0,0-3-.84h-.83c-3,0-4.92,1.18-5.68,3.55a3.56,3.56,0,0,0-.14,1.09q0,3.85,12.23,6.62,6.9,2.16,6.9,8.92,0,7.18-7.35,9.73a21.6,21.6,0,0,1-5.23.7q-9.82,0-14.36-8.41V263a49,49,0,0,1,5-2.62,9.62,9.62,0,0,0,9.24,5.93h.38c3.72,0,5.9-1.3,6.52-3.91v-.83q0-3.81-9.72-6.07-7-2.16-8.68-5.44a9.55,9.55,0,0,1-.84-3.8v-.59q0-6.8,8.33-9.52A20.67,20.67,0,0,1,880.28,235.66Z"/><path d="M913.26,235.66q8.75,0,13.07,8.65l-4.88,2.75a10.77,10.77,0,0,0-4.74-5,7.14,7.14,0,0,0-3-.84h-.83q-4.53,0-5.69,3.55a3.92,3.92,0,0,0-.13,1.09q0,3.85,12.23,6.62,6.9,2.16,6.9,8.92,0,7.18-7.35,9.73a21.6,21.6,0,0,1-5.23.7q-9.82,0-14.36-8.41V263a47.73,47.73,0,0,1,5-2.62,9.62,9.62,0,0,0,9.24,5.93h.38q5.58,0,6.52-3.91v-.83q0-3.81-9.73-6.07-7-2.16-8.67-5.44a9.55,9.55,0,0,1-.84-3.8v-.59q0-6.8,8.33-9.52A20.55,20.55,0,0,1,913.26,235.66Z"/></g></svg>