<svg xmlns="http://www.w3.org/2000/svg" xmlns:xlink="http://www.w3.org/1999/xlink" viewBox="0 0 1000 1000"><defs><style>.cls-1{fill:#40403f;}.cls-2{fill:url(#linear-gradient);}.cls-3{fill:url(#linear-gradient-2);}.cls-4{fill:url(#linear-gradient-3);}.cls-5{fill:url(#linear-gradient-4);}.cls-6{fill:url(#linear-gradient-5);}.cls-7{fill:url(#linear-gradient-6);}.cls-8{fill:url(#linear-gradient-7);}.cls-9{fill:url(#linear-gradient-8);}.cls-10{fill:url(#linear-gradient-9);}.cls-11{fill:url(#linear-gradient-10);}.cls-12{fill:url(#linear-gradient-11);}.cls-13{fill:url(#linear-gradient-12);}.cls-14{fill:url(#linear-gradient-13);}.cls-15{fill:url(#linear-gradient-14);}.cls-16{fill:url(#linear-gradient-15);}.cls-17{fill:url(#linear-gradient-16);}.cls-18{fill:url(#linear-gradient-17);}.cls-19{fill:url(#linear-gradient-18);}.cls-20{fill:url(#linear-gradient-19);}.cls-21{fill:url(#linear-gradient-20);}.cls-22{fill:url(#linear-gradient-21);}.cls-23{fill:url(#linear-gradient-22);}.cls-24{fill:url(#linear-gradient-23);}.cls-25{fill:url(#linear-gradient-24);}.cls-26{fill:url(#linear-gradient-25);}.cls-27{fill:url(#linear-gradient-26);}.cls-28{fill:url(#linear-gradient-27);}.cls-29{fill:url(#linear-gradient-28);}.cls-30{fill:url(#linear-gradient-29);}.cls-31{fill:url(#linear-gradient-30);}.cls-32{fill:url(#linear-gradient-31);}.cls-33{fill:url(#linear-gradient-32);}.cls-34{fill:url(#linear-gradient-33);}.cls-35{fill:url(#linear-gradient-34);}.cls-36{fill:url(#linear-gradient-35);}.cls-37{fill:url(#linear-gradient-36);}.cls-38{fill:url(#linear-gradient-37);}.cls-39{fill:url(#linear-gradient-38);}.cls-40{fill:url(#linear-gradient-39);}.cls-41{fill:url(#linear-gradient-40);}.cls-42{fill:url(#linear-gradient-41);}.cls-43{fill:url(#linear-gradient-42);}.cls-44{fill:url(#linear-gradient-43);}.cls-45{fill:url(#linear-gradient-44);}.cls-46{fill:url(#linear-gradient-45);}.cls-47{fill:url(#linear-gradient-46);}.cls-48{fill:url(#linear-gradient-47);}.cls-49{fill:url(#linear-gradient-48);}.cls-50{fill:url(#linear-gradient-49);}.cls-51{fill:url(#linear-gradient-50);}.cls-52{fill:url(#linear-gradient-51);}.cls-53{fill:url(#linear-gradient-52);}.cls-54{fill:url(#linear-gradient-53);}.cls-55{fill:url(#linear-gradient-54);}.cls-56{fill:url(#linear-gradient-55);}.cls-57{fill:url(#linear-gradient-56);}.cls-58{fill:url(#linear-gradient-57);}.cls-59{fill:url(#linear-gradient-58);}.cls-60{fill:url(#linear-gradient-59);}.cls-61{fill:url(#linear-gradient-60);}.cls-62{fill:url(#linear-gradient-61);}.cls-63{fill:url(#linear-gradient-62);}.cls-64{fill:url(#linear-gradient-63);}.cls-65{fill:url(#linear-gradient-64);}.cls-66{fill:url(#linear-gradient-65);}.cls-67{fill:url(#linear-gradient-66);}.cls-68{fill:url(#linear-gradient-67);}.cls-69{fill:url(#linear-gradient-68);}.cls-70{fill:url(#linear-gradient-69);}.cls-71{fill:url(#linear-gradient-70);}.cls-72{fill:url(#linear-gradient-71);}.cls-73{fill:url(#linear-gradient-72);}.cls-74{fill:url(#linear-gradient-73);}.cls-75{fill:url(#linear-gradient-74);}.cls-76{fill:url(#linear-gradient-75);}.cls-77{fill:url(#linear-gradient-76);}.cls-78{fill:url(#linear-gradient-77);}.cls-79{fill:url(#linear-gradient-78);}.cls-80{fill:url(#linear-gradient-79);}.cls-81{fill:url(#linear-gradient-80);}.cls-82{fill:url(#linear-gradient-81);}.cls-83{fill:url(#linear-gradient-82);}.cls-84{fill:url(#linear-gradient-83);}.cls-85{fill:url(#linear-gradient-84);}.cls-86{fill:url(#linear-gradient-85);}.cls-87{fill:url(#linear-gradient-86);}.cls-88{fill:url(#linear-gradient-87);}.cls-89{fill:url(#linear-gradient-88);}.cls-90{fill:url(#linear-gradient-89);}.cls-91{fill:url(#linear-gradient-90);}.cls-92{fill:url(#linear-gradient-91);}.cls-93{fill:url(#linear-gradient-92);}.cls-94{fill:url(#linear-gradient-93);}.cls-95{fill:url(#linear-gradient-94);}.cls-96{fill:url(#linear-gradient-95);}.cls-97{fill:url(#linear-gradient-96);}.cls-98{fill:url(#linear-gradient-97);}.cls-99{fill:url(#linear-gradient-98);}.cls-100{fill:url(#linear-gradient-99);}.cls-101{fill:url(#linear-gradient-100);}.cls-102{fill:url(#linear-gradient-101);}.cls-103{fill:url(#linear-gradient-102);}.cls-104{fill:url(#linear-gradient-103);}.cls-105{fill:#d8a933;}</style><linearGradient id="linear-gradient" x1="314.86" y1="394.47" x2="321.63" y2="382.75" gradientUnits="userSpaceOnUse"><stop offset="0" stop-color="#ffd040"/><stop offset="0.58" stop-color="#c89d34"/><stop offset="0.99" stop-color="#a57d2d"/></linearGradient><linearGradient id="linear-gradient-2" x1="406.83" y1="385.43" x2="418.56" y2="365.11" xlink:href="#linear-gradient"/><linearGradient id="linear-gradient-3" x1="385.08" y1="391.97" x2="396.4" y2="372.37" xlink:href="#linear-gradient"/><linearGradient id="linear-gradient-4" x1="362.64" y1="404.72" x2="374.91" y2="383.48" xlink:href="#linear-gradient"/><linearGradient id="linear-gradient-5" x1="337.87" y1="400.79" x2="348.71" y2="382.02" xlink:href="#linear-gradient"/><linearGradient id="linear-gradient-6" x1="342.43" y1="378.18" x2="348.74" y2="367.26" xlink:href="#linear-gradient"/><linearGradient id="linear-gradient-7" x1="350.75" y1="362.11" x2="356.64" y2="351.91" xlink:href="#linear-gradient"/><linearGradient id="linear-gradient-8" x1="331.3" y1="345.17" x2="337.19" y2="334.97" xlink:href="#linear-gradient"/><linearGradient id="linear-gradient-9" x1="326.47" y1="323.58" x2="334.56" y2="309.56" xlink:href="#linear-gradient"/><linearGradient id="linear-gradient-10" x1="399.25" y1="347.42" x2="407.34" y2="333.4" xlink:href="#linear-gradient"/><linearGradient id="linear-gradient-11" x1="383.4" y1="337.52" x2="393.58" y2="319.89" xlink:href="#linear-gradient"/><linearGradient id="linear-gradient-12" x1="362.67" y1="331.92" x2="372.9" y2="314.2" xlink:href="#linear-gradient"/><linearGradient id="linear-gradient-13" x1="345.79" y1="302.96" x2="351.36" y2="293.31" xlink:href="#linear-gradient"/><linearGradient id="linear-gradient-14" x1="378.37" y1="301.91" x2="385.53" y2="289.5" xlink:href="#linear-gradient"/><linearGradient id="linear-gradient-15" x1="361.96" y1="288.9" x2="369.31" y2="276.16" xlink:href="#linear-gradient"/><linearGradient id="linear-gradient-16" x1="346.96" y1="271.86" x2="352.98" y2="261.44" xlink:href="#linear-gradient"/><linearGradient id="linear-gradient-17" x1="432.22" y1="322.01" x2="438" y2="312" xlink:href="#linear-gradient"/><linearGradient id="linear-gradient-18" x1="425.44" y1="299.85" x2="430.99" y2="290.24" xlink:href="#linear-gradient"/><linearGradient id="linear-gradient-19" x1="416.89" y1="281.95" x2="423.6" y2="270.32" xlink:href="#linear-gradient"/><linearGradient id="linear-gradient-20" x1="396.18" y1="270.03" x2="402.9" y2="258.4" xlink:href="#linear-gradient"/><linearGradient id="linear-gradient-21" x1="375.97" y1="252.78" x2="381.68" y2="242.89" xlink:href="#linear-gradient"/><linearGradient id="linear-gradient-22" x1="481.25" y1="226.64" x2="489.12" y2="213.01" xlink:href="#linear-gradient"/><linearGradient id="linear-gradient-23" x1="452.63" y1="282.59" x2="462.61" y2="265.3" xlink:href="#linear-gradient"/><linearGradient id="linear-gradient-24" x1="455.59" y1="260.37" x2="463.72" y2="246.27" xlink:href="#linear-gradient"/><linearGradient id="linear-gradient-25" x1="460.4" y1="237.8" x2="471.41" y2="218.74" xlink:href="#linear-gradient"/><linearGradient id="linear-gradient-26" x1="440.24" y1="234.92" x2="449.07" y2="219.63" xlink:href="#linear-gradient"/><linearGradient id="linear-gradient-27" x1="422.04" y1="250.61" x2="430.87" y2="235.31" xlink:href="#linear-gradient"/><linearGradient id="linear-gradient-28" x1="400.08" y1="241.2" x2="408.91" y2="225.9" xlink:href="#linear-gradient"/><linearGradient id="linear-gradient-29" x1="354.56" y1="456.15" x2="360.58" y2="445.72" xlink:href="#linear-gradient"/><linearGradient id="linear-gradient-30" x1="332.5" y1="459.29" x2="338.33" y2="449.2" xlink:href="#linear-gradient"/><linearGradient id="linear-gradient-31" x1="309.92" y1="464.98" x2="315.92" y2="454.59" xlink:href="#linear-gradient"/><linearGradient id="linear-gradient-32" x1="323.25" y1="484.4" x2="331.72" y2="469.73" xlink:href="#linear-gradient"/><linearGradient id="linear-gradient-33" x1="343.97" y1="492.3" x2="355.04" y2="473.13" xlink:href="#linear-gradient"/><linearGradient id="linear-gradient-34" x1="367.8" y1="483.92" x2="378.71" y2="465.02" xlink:href="#linear-gradient"/><linearGradient id="linear-gradient-35" x1="389" y1="469.24" x2="399.84" y2="450.47" xlink:href="#linear-gradient"/><linearGradient id="linear-gradient-36" x1="407.2" y1="481.16" x2="418.03" y2="462.39" xlink:href="#linear-gradient"/><linearGradient id="linear-gradient-37" x1="424.22" y1="491.39" x2="433.1" y2="476" xlink:href="#linear-gradient"/><linearGradient id="linear-gradient-38" x1="446.29" y1="496.67" x2="452.85" y2="485.31" xlink:href="#linear-gradient"/><linearGradient id="linear-gradient-39" x1="468.92" y1="485.04" x2="474.64" y2="475.12" xlink:href="#linear-gradient"/><linearGradient id="linear-gradient-40" x1="455.33" y1="470.85" x2="464.06" y2="455.73" xlink:href="#linear-gradient"/><linearGradient id="linear-gradient-41" x1="436.13" y1="458.31" x2="442.11" y2="447.95" xlink:href="#linear-gradient"/><linearGradient id="linear-gradient-42" x1="426.94" y1="439.22" x2="432.74" y2="429.17" xlink:href="#linear-gradient"/><linearGradient id="linear-gradient-43" x1="310" y1="415.35" x2="315.99" y2="404.97" xlink:href="#linear-gradient"/><linearGradient id="linear-gradient-44" x1="323.46" y1="435.37" x2="333.1" y2="418.68" xlink:href="#linear-gradient"/><linearGradient id="linear-gradient-45" x1="346.26" y1="443" x2="356.78" y2="424.78" xlink:href="#linear-gradient"/><linearGradient id="linear-gradient-46" x1="364.57" y1="442.14" x2="375.74" y2="422.8" xlink:href="#linear-gradient"/><linearGradient id="linear-gradient-47" x1="443.15" y1="637.55" x2="562.96" y2="430.04" gradientUnits="userSpaceOnUse"><stop offset="0" stop-color="#ffd040"/><stop offset="0.46" stop-color="#fdce40"/><stop offset="0.62" stop-color="#f6c83e"/><stop offset="0.74" stop-color="#ebbd3c"/><stop offset="0.83" stop-color="#daae38"/><stop offset="0.91" stop-color="#c49934"/><stop offset="0.98" stop-color="#a9812e"/><stop offset="0.99" stop-color="#a57d2d"/></linearGradient><linearGradient id="linear-gradient-48" x1="428.59" y1="525.42" x2="592.42" y2="241.66" gradientUnits="userSpaceOnUse"><stop offset="0" stop-color="#ffd040"/><stop offset="0.59" stop-color="#c79c34"/><stop offset="0.99" stop-color="#a57d2d"/></linearGradient><linearGradient id="linear-gradient-49" x1="514.96" y1="396.39" x2="515.07" y2="396.2" xlink:href="#linear-gradient"/><linearGradient id="linear-gradient-50" x1="490.42" y1="458.66" x2="491.78" y2="456.3" xlink:href="#linear-gradient"/><linearGradient id="linear-gradient-51" x1="675.42" y1="398.63" x2="687.42" y2="377.85" xlink:href="#linear-gradient"/><linearGradient id="linear-gradient-52" x1="583.33" y1="381.85" x2="591" y2="368.57" xlink:href="#linear-gradient"/><linearGradient id="linear-gradient-53" x1="605.43" y1="388.52" x2="612.83" y2="375.7" xlink:href="#linear-gradient"/><linearGradient id="linear-gradient-54" x1="627.07" y1="400.98" x2="635.09" y2="387.09" xlink:href="#linear-gradient"/><linearGradient id="linear-gradient-55" x1="654.25" y1="395.93" x2="659.87" y2="386.19" xlink:href="#linear-gradient"/><linearGradient id="linear-gradient-56" x1="651" y1="379.25" x2="657.85" y2="367.38" xlink:href="#linear-gradient"/><linearGradient id="linear-gradient-57" x1="642.2" y1="364.68" x2="650.52" y2="350.26" xlink:href="#linear-gradient"/><linearGradient id="linear-gradient-58" x1="661.65" y1="347.74" x2="669.97" y2="333.32" xlink:href="#linear-gradient"/><linearGradient id="linear-gradient-59" x1="666.3" y1="322.33" x2="672.67" y2="311.29" xlink:href="#linear-gradient"/><linearGradient id="linear-gradient-60" x1="593.52" y1="346.17" x2="599.89" y2="335.13" xlink:href="#linear-gradient"/><linearGradient id="linear-gradient-61" x1="609.03" y1="333.33" x2="614.67" y2="323.56" xlink:href="#linear-gradient"/><linearGradient id="linear-gradient-62" x1="629.72" y1="327.71" x2="635.39" y2="317.89" xlink:href="#linear-gradient"/><linearGradient id="linear-gradient-63" x1="646.64" y1="306.24" x2="655.96" y2="290.1" xlink:href="#linear-gradient"/><linearGradient id="linear-gradient-64" x1="614.84" y1="301.65" x2="621.22" y2="290.6" xlink:href="#linear-gradient"/><linearGradient id="linear-gradient-65" x1="631.07" y1="288.63" x2="637.61" y2="277.29" xlink:href="#linear-gradient"/><linearGradient id="linear-gradient-66" x1="646.3" y1="273.77" x2="653.84" y2="260.71" xlink:href="#linear-gradient"/><linearGradient id="linear-gradient-67" x1="559.63" y1="325.65" x2="569.69" y2="308.22" xlink:href="#linear-gradient"/><linearGradient id="linear-gradient-68" x1="566.73" y1="303.34" x2="576.39" y2="286.61" xlink:href="#linear-gradient"/><linearGradient id="linear-gradient-69" x1="576.36" y1="282.58" x2="583.15" y2="270.82" xlink:href="#linear-gradient"/><linearGradient id="linear-gradient-70" x1="597.06" y1="270.66" x2="603.86" y2="258.9" xlink:href="#linear-gradient"/><linearGradient id="linear-gradient-71" x1="617.56" y1="254.73" x2="624.88" y2="242.04" xlink:href="#linear-gradient"/><linearGradient id="linear-gradient-72" x1="509.5" y1="229.08" x2="520.28" y2="210.41" xlink:href="#linear-gradient"/><linearGradient id="linear-gradient-73" x1="539.35" y1="278.9" x2="544.75" y2="269.54" xlink:href="#linear-gradient"/><linearGradient id="linear-gradient-74" x1="537.37" y1="258.25" x2="543.12" y2="248.29" xlink:href="#linear-gradient"/><linearGradient id="linear-gradient-75" x1="530.98" y1="233.61" x2="536.73" y2="223.63" xlink:href="#linear-gradient"/><linearGradient id="linear-gradient-76" x1="550.63" y1="236.18" x2="560.88" y2="218.42" xlink:href="#linear-gradient"/><linearGradient id="linear-gradient-77" x1="568.82" y1="251.86" x2="579.07" y2="234.11" xlink:href="#linear-gradient"/><linearGradient id="linear-gradient-78" x1="590.78" y1="242.45" x2="601.03" y2="224.69" xlink:href="#linear-gradient"/><linearGradient id="linear-gradient-79" x1="638.63" y1="458.17" x2="646.34" y2="444.82" xlink:href="#linear-gradient"/><linearGradient id="linear-gradient-80" x1="659.25" y1="462.93" x2="669.39" y2="445.37" xlink:href="#linear-gradient"/><linearGradient id="linear-gradient-81" x1="682.35" y1="468.08" x2="691.73" y2="451.83" xlink:href="#linear-gradient"/><linearGradient id="linear-gradient-82" x1="669.4" y1="482.7" x2="675.71" y2="471.76" xlink:href="#linear-gradient"/><linearGradient id="linear-gradient-83" x1="647.76" y1="487.49" x2="653.67" y2="477.25" xlink:href="#linear-gradient"/><linearGradient id="linear-gradient-84" x1="623.65" y1="479.73" x2="629.99" y2="468.75" xlink:href="#linear-gradient"/><linearGradient id="linear-gradient-85" x1="600.28" y1="468.04" x2="609.67" y2="451.76" xlink:href="#linear-gradient"/><linearGradient id="linear-gradient-86" x1="582.08" y1="479.96" x2="591.48" y2="463.68" xlink:href="#linear-gradient"/><linearGradient id="linear-gradient-87" x1="565.36" y1="493.66" x2="576.85" y2="473.76" xlink:href="#linear-gradient"/><linearGradient id="linear-gradient-88" x1="544.94" y1="501.42" x2="556.57" y2="481.27" xlink:href="#linear-gradient"/><linearGradient id="linear-gradient-89" x1="524.15" y1="486.64" x2="532.19" y2="472.71" xlink:href="#linear-gradient"/><linearGradient id="linear-gradient-90" x1="537.2" y1="468.4" x2="543.1" y2="458.18" xlink:href="#linear-gradient"/><linearGradient id="linear-gradient-91" x1="557.06" y1="459.1" x2="564.61" y2="446.02" xlink:href="#linear-gradient"/><linearGradient id="linear-gradient-92" x1="565.53" y1="442.41" x2="575.06" y2="425.9" xlink:href="#linear-gradient"/><linearGradient id="linear-gradient-93" x1="682.98" y1="417.71" x2="691.14" y2="403.57" xlink:href="#linear-gradient"/><linearGradient id="linear-gradient-94" x1="668.94" y1="432.16" x2="674.99" y2="421.68" xlink:href="#linear-gradient"/><linearGradient id="linear-gradient-95" x1="646.06" y1="438.34" x2="651.59" y2="428.77" xlink:href="#linear-gradient"/><linearGradient id="linear-gradient-96" x1="626.87" y1="437.58" x2="633.1" y2="426.78" xlink:href="#linear-gradient"/><linearGradient id="linear-gradient-97" x1="293.55" y1="687.79" x2="333.24" y2="756.54" gradientUnits="userSpaceOnUse"><stop offset="0" stop-color="#ffd040"/><stop offset="0.18" stop-color="#f8ca3f"/><stop offset="0.43" stop-color="#e5b83b"/><stop offset="0.73" stop-color="#c79c34"/><stop offset="0.99" stop-color="#a57d2d"/></linearGradient><linearGradient id="linear-gradient-98" x1="358.82" y1="666.32" x2="397.3" y2="732.97" xlink:href="#linear-gradient-97"/><linearGradient id="linear-gradient-99" x1="415.68" y1="670.58" x2="454.7" y2="738.15" xlink:href="#linear-gradient-97"/><linearGradient id="linear-gradient-100" x1="484.87" y1="679.68" x2="520.45" y2="741.3" xlink:href="#linear-gradient-97"/><linearGradient id="linear-gradient-101" x1="537.1" y1="687.79" x2="576.8" y2="756.54" xlink:href="#linear-gradient-97"/><linearGradient id="linear-gradient-102" x1="605.25" y1="674.52" x2="648.58" y2="749.57" xlink:href="#linear-gradient-97"/><linearGradient id="linear-gradient-103" x1="671.58" y1="675.69" x2="711.73" y2="745.23" xlink:href="#linear-gradient-97"/></defs><g id="Layer_4" data-name="Layer 4"><rect class="cls-1" x="-7.63" width="1016.26" height="1000"/></g><g id="Layer_2_copy" data-name="Layer 2 copy"><path class="cls-2" d="M325.6,398s5-16.07-14.4-19.39C311.2,378.65,309.54,398.59,325.6,398Z"/><path class="cls-3" d="M417.18,364.31s-16,4.31-8.54,22.17C408.64,386.48,426.09,377.37,417.18,364.31Z"/><path class="cls-4" d="M395.06,371.59s-15.41,4.16-8.23,21.39C386.83,393,403.66,384.19,395.06,371.59Z"/><path class="cls-5" d="M373.46,382.64s-16.7,4.5-8.93,23.17C364.53,405.81,382.77,396.29,373.46,382.64Z"/><path class="cls-6" d="M351.84,383.83s-15.76-3.47-17.55,14.9C334.29,398.73,353.53,398.8,351.84,383.83Z"/><path class="cls-7" d="M356.77,373.2s-9.44-12.82-22.71-.35C334.06,372.85,348.28,385.42,356.77,373.2Z"/><path class="cls-8" d="M365,360.06s-6.67-15.15-23-5.5C342,354.56,353.63,370.54,365,360.06Z"/><path class="cls-9" d="M345.55,343.12s-6.67-15.15-23-5.5C322.59,337.62,334.18,353.6,345.55,343.12Z"/><path class="cls-10" d="M342,314.08s-12.69-10.84-23.26,5.05C318.77,319.13,336.28,328.56,342,314.08Z"/><path class="cls-11" d="M414.81,337.92s-12.69-10.84-23.26,5.05C391.55,343,409.06,352.4,414.81,337.92Z"/><path class="cls-12" d="M398,322.47s-15.12-5.84-19.68,12.14C378.36,334.61,397.46,337.6,398,322.47Z"/><path class="cls-13" d="M377.39,316.79s-15.21-5.86-19.78,12.2C357.61,329,376.8,332,377.39,316.79Z"/><path class="cls-14" d="M358.92,303s-3.57-15.67-20.87-9.47C338.05,293.56,346.15,310.91,358.92,303Z"/><path class="cls-15" d="M393.17,294.42s-11.25-11.43-22.68,2.91C370.49,297.33,386.47,307.82,393.17,294.42Z"/><path class="cls-16" d="M377.16,281.21s-11.55-11.73-23.3,3C353.86,284.2,370.28,295,377.16,281.21Z"/><path class="cls-17" d="M361.26,268.5s-8.05-14.1-23-3C338.3,265.47,351.23,279.87,361.26,268.5Z"/><path class="cls-18" d="M445.49,322.69s-2.62-16.4-20.88-11.17C424.61,311.52,431.79,330,445.49,322.69Z"/><path class="cls-19" d="M438.18,300.5s-2.51-15.74-20.05-10.72C418.13,289.78,425,307.48,438.18,300.5Z"/><path class="cls-20" d="M431.68,276s-10.33-12.58-23.2.88C408.48,276.86,423.68,288.91,431.68,276Z"/><path class="cls-21" d="M411,264.06s-10.33-12.58-23.21.88C387.77,264.94,403,277,411,264.06Z"/><path class="cls-22" d="M389.62,249.8s-7.47-13.65-21.95-3.31C367.67,246.49,379.81,260.53,389.62,249.8Z"/><path class="cls-23" d="M488.34,230.33s9.28-12.49-6.17-21.33C482.17,209,474.49,225.89,488.34,230.33Z"/><path class="cls-24" d="M448.68,280.31s14.75,5,18.4-12.43C467.08,267.88,448.64,265.78,448.68,280.31Z"/><path class="cls-25" d="M449.22,256.65s12.63,9.1,21.23-6.49C470.45,250.16,453.44,242.74,449.22,256.65Z"/><path class="cls-26" d="M459.18,237.09s15.57.11,13.56-17.58C472.74,219.51,454.58,223.31,459.18,237.09Z"/><path class="cls-27" d="M445.92,238.17s11.07-10.95-2.87-22C443.05,216.15,432.91,231.69,445.92,238.17Z"/><path class="cls-28" d="M427.73,253.85s11.07-10.94-2.88-22C424.85,231.84,414.71,247.37,427.73,253.85Z"/><path class="cls-29" d="M405.77,244.44s11.07-10.94-2.87-22C402.9,222.43,392.75,238,405.77,244.44Z"/><path class="cls-30" d="M368.84,453.12s-7.33-14.42-22.92-3.72C345.92,449.4,358.13,464.27,368.84,453.12Z"/><path class="cls-31" d="M345.72,460.06s-2.06-16.35-20.7-11.46C325,448.6,331.61,467.06,345.72,460.06Z"/><path class="cls-32" d="M324.19,464.22s-4.64-16.28-22.8-8.41C301.39,455.81,311,473.52,324.19,464.22Z"/><path class="cls-33" d="M338.94,474s-12.91-10.57-23.19,6C315.75,480.06,333.46,489,338.94,474Z"/><path class="cls-34" d="M356.05,473.71s-15.51,0-13.16,18C342.89,491.67,360.91,487.71,356.05,473.71Z"/><path class="cls-35" d="M378.5,464.9s-15.06,2.11-10.31,19.24C368.19,484.14,385.14,477.82,378.5,464.9Z"/><path class="cls-36" d="M396.2,448.37s-14.32,8-2.88,23.36C393.32,471.73,407.9,458.78,396.2,448.37Z"/><path class="cls-37" d="M414.39,460.29s-14.31,8-2.87,23.36C411.52,483.65,426.1,470.7,414.39,460.29Z"/><path class="cls-38" d="M426,472.12s-10.95,12.65,5.39,23.41C431.39,495.53,440.86,478,426,472.12Z"/><path class="cls-39" d="M442.44,481.85s-4.84,15.57,14,18.8C456.4,500.65,458,481.31,442.44,481.85Z"/><path class="cls-40" d="M460.92,477.07s6,14.64,22.06,5.45C483,482.52,472.24,467.05,460.92,477.07Z"/><path class="cls-41" d="M449,467.19s13.2,9.11,21.74-7.59C470.78,459.6,453.11,452.42,449,467.19Z"/><path class="cls-42" d="M428,451.09s7.41,14.17,22.71,3.42C450.66,454.51,438.41,440,428,451.09Z"/><path class="cls-43" d="M419.13,429.27s3.53,16.07,21.62,9.51C440.75,438.78,432.52,421,419.13,429.27Z"/><path class="cls-44" d="M324.33,413s-6.62-15-23-5.06C301.31,407.94,312.85,423.69,324.33,413Z"/><path class="cls-45" d="M339.07,422.13s-14.42-8.54-22.12,9.49C317,431.62,335.89,437.83,339.07,422.13Z"/><path class="cls-46" d="M359.89,426.58S344.75,422.82,342.7,441C342.7,441,361.26,441.43,359.89,426.58Z"/><path class="cls-47" d="M376,423s-15.49,1.3-11.61,19.07C364.39,442,382.06,436.53,376,423Z"/><path class="cls-48" d="M490.9,460.47s.32,38.92-38.58,55.24c0,0-10,6.27-60.23-1.26,0,0-30.24-3-42.88,4.36a1.76,1.76,0,0,0-.85,1.82l.22,1.3a1.27,1.27,0,0,0,1.51,1c3.85-.76,15.56-2.92,24.74-3.19,16.76-.48,25.54,2.62,42.25,4.08a190,190,0,0,0,38.62-.63s20.46-5,27.36-17.56c0,0-3.76,21.33-29.49,33.25a58.23,58.23,0,0,1-15.92,4.47c-9.79,1.47-19.77.05-39.65-4.47-14.41-3.28-16.52-4.75-25.05-5.33a84.39,84.39,0,0,0-18.44.76,2.81,2.81,0,0,0-2.33,3.32l.14.68a2.64,2.64,0,0,0,3.2,2,59.84,59.84,0,0,1,14.29-1.79,64,64,0,0,1,12.55,1.25,76.61,76.61,0,0,1,14.91,4.36c-5.86,2.63-16,7.95-23.69,17a46.46,46.46,0,0,0-5.65,8.16,43.7,43.7,0,0,0-4.71,14.74s.93,1.26,3.61,0a49.11,49.11,0,0,1,7.45-15.68c9.9-13.82,24.21-18.38,29.41-19.77a123.33,123.33,0,0,0,35.76.63c10-1.29,19-2.44,28.48-7.9,14.64-8.4,21.85-22,25.17-30.06a60.29,60.29,0,0,1-6.75,21.18c-.77,1.42-12.54,22.43-35.6,29.33-3.44,1-9.4,1.94-21.33,3.76-7.82,1.2-14.32,2-18.83,2.51a46.5,46.5,0,0,0-17.8,4.08,48.3,48.3,0,0,0-22,20.71s-1.88,4.39,3.14,3.13A42.53,42.53,0,0,1,409,573.43q8.63-1.23,17.88-2.2,9.54-1,18.51-1.57s-26.36,22.59-30.75,38.9c0,0,1.37,2.51,4.45,0a102.72,102.72,0,0,1,7.66-11.84A94.47,94.47,0,0,1,449.49,575c4.38-2.94,8.78-5.31,9.41-5.65,6-3.23,8.12-3.64,12-5.88A46.87,46.87,0,0,0,482.43,554s-15.66,38.62-41.71,55.7c0,0-2.21,1.39,2.19,4.53A113,113,0,0,0,478,574.68s-5,39.53,5.65,55.21a3.21,3.21,0,0,0,5.64-1.88s-20.7-33.66,10.67-95.88C531.37,594.35,510.67,628,510.67,628a3.21,3.21,0,0,0,5.64,1.88C527,614.21,522,574.68,522,574.68a113,113,0,0,0,35.13,39.53c4.4-3.14,2.19-4.53,2.19-4.53-26-17.08-41.71-55.7-41.71-55.7a46.87,46.87,0,0,0,11.53,9.49c3.88,2.24,6,2.65,12,5.88.63.34,5,2.71,9.41,5.65a94.47,94.47,0,0,1,22.71,21.72,102.72,102.72,0,0,1,7.66,11.84c3.08,2.51,4.45,0,4.45,0-4.39-16.31-30.75-38.9-30.75-38.9q9,.58,18.51,1.57,9.25,1,17.88,2.2A42.53,42.53,0,0,1,626.11,596c5,1.26,3.14-3.13,3.14-3.13a48.3,48.3,0,0,0-22-20.71,46.5,46.5,0,0,0-17.8-4.08c-4.51-.51-11-1.31-18.83-2.51-11.93-1.82-17.89-2.73-21.33-3.76-23.06-6.9-34.83-27.91-35.6-29.33a60.29,60.29,0,0,1-6.75-21.18c3.32,8.07,10.53,21.66,25.17,30.06,9.51,5.46,18.47,6.61,28.48,7.9a123.33,123.33,0,0,0,35.76-.63c5.2,1.39,19.51,6,29.41,19.77a49.11,49.11,0,0,1,7.45,15.68c2.68,1.26,3.61,0,3.61,0a43.7,43.7,0,0,0-4.71-14.74,46.46,46.46,0,0,0-5.65-8.16c-7.7-9-17.83-14.34-23.69-17a76.61,76.61,0,0,1,14.91-4.36,64,64,0,0,1,12.55-1.25,59.84,59.84,0,0,1,14.29,1.79,2.64,2.64,0,0,0,3.2-2l.14-.68a2.81,2.81,0,0,0-2.33-3.32,84.39,84.39,0,0,0-18.44-.76c-8.53.58-10.64,2-25,5.33-19.88,4.52-29.86,5.94-39.65,4.47a58.23,58.23,0,0,1-15.92-4.47c-25.73-11.92-29.49-33.25-29.49-33.25,6.9,12.54,27.36,17.56,27.36,17.56a190,190,0,0,0,38.62.63c16.71-1.46,25.49-4.56,42.25-4.08,9.18.27,20.89,2.43,24.74,3.19a1.27,1.27,0,0,0,1.51-1l.22-1.3a1.76,1.76,0,0,0-.85-1.82c-12.64-7.32-42.88-4.36-42.88-4.36-50.19,7.53-60.23,1.26-60.23,1.26C508.78,499.39,507.53,463,507.53,463c13.94-25.22,13.53-45.57,10.05-59.16-7.33,6.89-10,13.2-11,17.73-1,4.19-.34,5.92-1.88,13.17-1,4.73-1.91,9-4.4,13.81A40.35,40.35,0,0,1,490.9,460.47Z"/><path class="cls-49" d="M615.14,416.16a58.8,58.8,0,0,0,35.1,2c.83-.21,1.68-.44,2.53-.69a65.3,65.3,0,0,0,22.28-11.61c.63-5-4.39-3.77-4.39-3.77-8.73,6.09-23.51,14-40.47,11.61-11.9-1.67-20.32-7.77-33.88-17.57-14.25-10.3-18.39-17.09-35.06-27.68a165.62,165.62,0,0,0-16.08-9,120.44,120.44,0,0,1,39.69.71c4.07.76,7.89,1.7,11.45,2.74a150.1,150.1,0,0,1,33.88,15.22,146.8,146.8,0,0,1,12.23,8.31c3.14-.63,2.51-2.51,2.51-2.51-5.64-11.92-45.17-25.1-45.17-25.1,4.59.3,28.56,1.42,45.49-16a51.41,51.41,0,0,0,11-17.25c-3.14-3.14-6.28,0-6.28,0a47.42,47.42,0,0,1-18.51,21.65,47.93,47.93,0,0,1-32.62,6.27,144.42,144.42,0,0,0-25.17-2.78c-4.95-.11-9.59,0-13.88.35,9.57-1.48,25.56-26.75,25.56-26.75,31.37-20.07,67.13-8.59,67.13-8.59a4.44,4.44,0,0,0,0-5.21c-37-8.78-65.25,6.9-65.25,6.9l7.84-17.25c2.43-5.12,9.32-17.71,23.84-24.47A46.21,46.21,0,0,1,631.44,272a2.58,2.58,0,0,0,0-5,44.46,44.46,0,0,0-11.29,2.51c-11.73,4.26-18.54,12.4-22.43,17.17a65.73,65.73,0,0,0-10.51,18.28c-5,10.66-15.06,23.84-15.06,23.84C556.47,352,538.9,348.81,538.9,348.81c6.9-5,12.55-34.5,12.55-34.5,6.27-32,15.06-40.79,15.06-40.79,16.31-21.33,37.64-20.45,37.64-20.45a3.75,3.75,0,0,0,0-4.64c-25.1-1.26-41.41,19.45-41.41,19.45a33.2,33.2,0,0,0-15.06-30.12c-5.64-1.25-3.76,3.14-3.76,3.14a28.86,28.86,0,0,1,9.41,11.35c4.28,10.23,4,17.75,2.82,22.84-1,4.53-2.7,6.84-5.64,15.06a143.1,143.1,0,0,0-4.71,16,77.43,77.43,0,0,0-9.1-17.88c-8.16-11.87-14-13-17.56-23.22A64.57,64.57,0,0,1,516,248.74c-.3-6.91.74-12.86-2.25-14.58A4.77,4.77,0,0,0,510,234c-.08,3.33-.08,8,.31,13.49.45,6.27.9,12.58,2.51,18.19,3.12,10.82,8,10,17.57,26.35,6.66,11.37,8,18.06,8.47,20.94a35.69,35.69,0,0,1-.31,15.45,32.27,32.27,0,0,1-10,16.32,25.72,25.72,0,0,1-13.4,6.33c-2.76.36-6,.77-8.56-1.31-3.61-2.95-2.91-8.5-2.83-9.1,9.42-4.39,7.53-22,7.53-22-.54-5.68-2.71-8.68-5-10.26a12.07,12.07,0,0,0-5.75-1.72c-.44,0-.81,0-1.06,0a12.12,12.12,0,0,0-5.75,1.72c-2.3,1.58-4.47,4.58-5,10.26,0,0-1.89,17.57,7.53,22,.08.6.78,6.15-2.83,9.1-2.55,2.08-5.8,1.67-8.56,1.31a25.72,25.72,0,0,1-13.4-6.33,32.27,32.27,0,0,1-10-16.32A35.69,35.69,0,0,1,461.1,313c.46-2.88,1.81-9.57,8.47-20.94,9.59-16.36,14.45-15.53,17.57-26.35,1.61-5.61,2.06-11.92,2.51-18.19C490,242,490,237.33,490,234a4.77,4.77,0,0,0-3.71.16c-3,1.72-1.95,7.67-2.25,14.58a64.57,64.57,0,0,1-3.14,16.31c-3.57,10.25-9.4,11.35-17.56,23.22a77.43,77.43,0,0,0-9.1,17.88,143.1,143.1,0,0,0-4.71-16c-2.94-8.22-4.6-10.53-5.64-15.06-1.17-5.09-1.46-12.61,2.82-22.84a28.86,28.86,0,0,1,9.41-11.35s1.88-4.39-3.76-3.14a33.2,33.2,0,0,0-15.06,30.12S421,247.17,395.85,248.43a3.75,3.75,0,0,0,0,4.64s21.33-.88,37.64,20.45c0,0,8.79,8.79,15.06,40.79,0,0,5.65,29.48,12.55,34.5,0,0-17.57,3.14-33.25-20.07,0,0-10-13.18-15.06-23.84a65.73,65.73,0,0,0-10.51-18.28c-3.89-4.77-10.7-12.91-22.43-17.17a44.46,44.46,0,0,0-11.29-2.51,2.58,2.58,0,0,0,0,5,46.21,46.21,0,0,1,12.55,3.76c14.52,6.76,21.41,19.35,23.84,24.47l7.84,17.25s-28.23-15.68-65.25-6.9a4.44,4.44,0,0,0,0,5.21s35.76-11.48,67.13,8.59c0,0,16,25.27,25.56,26.75-4.29-.31-8.93-.46-13.88-.35a144.42,144.42,0,0,0-25.17,2.78,47.93,47.93,0,0,1-32.62-6.27,47.42,47.42,0,0,1-18.51-21.65s-3.14-3.14-6.28,0a51.41,51.41,0,0,0,11,17.25c16.93,17.42,40.9,16.3,45.49,16,0,0-39.53,13.18-45.17,25.1,0,0-.63,1.88,2.51,2.51a146.8,146.8,0,0,1,12.23-8.31,150.1,150.1,0,0,1,33.88-15.22c3.56-1,7.38-2,11.45-2.74a120.44,120.44,0,0,1,39.69-.71,165.62,165.62,0,0,0-16.08,9c-16.67,10.59-20.81,17.38-35.06,27.68-13.56,9.8-22,15.9-33.88,17.57-17,2.39-31.74-5.52-40.47-11.61,0,0-5-1.25-4.39,3.77a65.3,65.3,0,0,0,22.28,11.61c.85.25,1.7.48,2.53.69a58.8,58.8,0,0,0,35.1-2,71,71,0,0,0,24.79-15.9c-4.32,8.25-7.5,15.17-9.64,20.08-3.24,7.39-3.93,9.76-6.36,14.12a78.86,78.86,0,0,1-13.17,16.94c-16.92,15.72-49.37,12.49-51.76,12.23a2,2,0,0,0-1.87,1.73c-.06.55.23,1.23,1.24,2,4.06.95,28.93,6.29,52.39-9.72,21.8-14.88,26.72-37.53,27.6-42-.32,2.69-3.52,33.3,18.92,51.93a53.8,53.8,0,0,0,28.45,11.76s3.14-2.51.63-5.65a50.2,50.2,0,0,1-22.18-9.8C418.74,452,415.64,435,415,430.69c-.44-4.66-1.72-24.29,11.95-41.83,18.15-23.29,46.88-22.6,49.85-22.48L491.05,385s-23.38,28.43-.92,73.53l0,0,0-.05h0a18.33,18.33,0,0,0,2-2c5.24-6.07,6.42-13.83,7.85-24.7.36-2.76.46-4.16,1-7.06a62.6,62.6,0,0,1,2.51-10,48.85,48.85,0,0,1,11.48-18.3l.16-.16a54.34,54.34,0,0,0-3.71-7.58C504.88,392.71,500,410,500,410c.94-15.91,8.95-25,8.95-25l14.26-18.63c3-.12,31.7-.81,49.85,22.48,13.67,17.54,12.39,37.17,12,41.83-.65,4.35-3.75,21.32-18.91,33.18a50.2,50.2,0,0,1-22.18,9.8c-2.51,3.14.63,5.65.63,5.65A53.8,53.8,0,0,0,573,467.56c22.44-18.63,19.24-49.24,18.92-51.93.88,4.51,5.8,27.16,27.6,42,23.46,16,48.33,10.67,52.39,9.72,1-.8,1.3-1.48,1.24-2a2,2,0,0,0-1.87-1.73c-2.39.26-34.84,3.49-51.76-12.23a78.86,78.86,0,0,1-13.17-16.94c-2.43-4.36-3.12-6.73-6.36-14.12-2.14-4.91-5.32-11.83-9.64-20.08a71,71,0,0,0,24.79,15.9Z"/><path class="cls-50" d="M514.93,396.37l.17-.14v0Z"/><path class="cls-51" d="M492.09,456.47a18.33,18.33,0,0,1-2,2h0l0,.05A17.81,17.81,0,0,0,492.09,456.47Z"/><path class="cls-52" d="M674.4,398s-5-16.07,14.4-19.39C688.8,378.65,690.46,398.59,674.4,398Z"/><path class="cls-53" d="M582.82,364.31s16,4.31,8.54,22.17C591.36,386.48,573.91,377.37,582.82,364.31Z"/><path class="cls-54" d="M604.94,371.59s15.41,4.16,8.23,21.39C613.17,393,596.34,384.19,604.94,371.59Z"/><path class="cls-55" d="M626.54,382.64s16.7,4.5,8.93,23.17C635.47,405.81,617.23,396.29,626.54,382.64Z"/><path class="cls-56" d="M648.16,383.83s15.76-3.47,17.55,14.9C665.71,398.73,646.47,398.8,648.16,383.83Z"/><path class="cls-57" d="M643.23,373.2s9.44-12.82,22.71-.35C665.94,372.85,651.72,385.42,643.23,373.2Z"/><path class="cls-58" d="M635,360.06s6.67-15.15,23-5.5C658,354.56,646.37,370.54,635,360.06Z"/><path class="cls-59" d="M654.45,343.12s6.67-15.15,23-5.5C677.41,337.62,665.82,353.6,654.45,343.12Z"/><path class="cls-60" d="M658,314.08s12.69-10.84,23.26,5.05C681.23,319.13,663.72,328.56,658,314.08Z"/><path class="cls-61" d="M585.19,337.92s12.69-10.84,23.26,5.05C608.45,343,590.94,352.4,585.19,337.92Z"/><path class="cls-62" d="M602,322.47s15.12-5.84,19.68,12.14C621.64,334.61,602.54,337.6,602,322.47Z"/><path class="cls-63" d="M622.61,316.79s15.21-5.86,19.78,12.2C642.39,329,623.2,332,622.61,316.79Z"/><path class="cls-64" d="M641.08,303s3.57-15.67,20.87-9.47C662,293.56,653.85,310.91,641.08,303Z"/><path class="cls-65" d="M606.83,294.42s11.25-11.43,22.68,2.91C629.51,297.33,613.53,307.82,606.83,294.42Z"/><path class="cls-66" d="M622.84,281.21s11.55-11.73,23.3,3C646.14,284.2,629.72,295,622.84,281.21Z"/><path class="cls-67" d="M638.74,268.5s8-14.1,23-3C661.7,265.47,648.77,279.87,638.74,268.5Z"/><path class="cls-68" d="M554.51,322.69s2.62-16.4,20.88-11.17C575.39,311.52,568.21,330,554.51,322.69Z"/><path class="cls-69" d="M561.82,300.5s2.51-15.74,20-10.72C581.87,289.78,575,307.48,561.82,300.5Z"/><path class="cls-70" d="M568.32,276s10.33-12.58,23.2.88C591.52,276.86,576.32,288.91,568.32,276Z"/><path class="cls-71" d="M589,264.06s10.33-12.58,23.21.88C612.23,264.94,597,277,589,264.06Z"/><path class="cls-72" d="M610.38,249.8s7.47-13.65,22-3.31C632.33,246.49,620.19,260.53,610.38,249.8Z"/><path class="cls-73" d="M511.66,230.33s-9.28-12.49,6.17-21.33C517.83,209,525.51,225.89,511.66,230.33Z"/><path class="cls-74" d="M551.32,280.31s-14.75,5-18.4-12.43C532.92,267.88,551.36,265.78,551.32,280.31Z"/><path class="cls-75" d="M550.78,256.65s-12.63,9.1-21.23-6.49C529.55,250.16,546.56,242.74,550.78,256.65Z"/><path class="cls-76" d="M540.82,237.09s-15.57.11-13.56-17.58C527.26,219.51,545.42,223.31,540.82,237.09Z"/><path class="cls-77" d="M554.08,238.17s-11.07-10.95,2.87-22C557,216.15,567.09,231.69,554.08,238.17Z"/><path class="cls-78" d="M572.27,253.85s-11.07-10.94,2.88-22C575.15,231.84,585.29,247.37,572.27,253.85Z"/><path class="cls-79" d="M594.23,244.44s-11.07-10.94,2.87-22C597.1,222.43,607.25,238,594.23,244.44Z"/><path class="cls-80" d="M631.16,453.12s7.33-14.42,22.92-3.72C654.08,449.4,641.87,464.27,631.16,453.12Z"/><path class="cls-81" d="M654.28,460.06s2.06-16.35,20.7-11.46C675,448.6,668.39,467.06,654.28,460.06Z"/><path class="cls-82" d="M675.81,464.22s4.64-16.28,22.8-8.41C698.61,455.81,689,473.52,675.81,464.22Z"/><path class="cls-83" d="M661.06,474s12.91-10.57,23.19,6C684.25,480.06,666.54,489,661.06,474Z"/><path class="cls-84" d="M644,473.71s15.51,0,13.16,18C657.11,491.67,639.09,487.71,644,473.71Z"/><path class="cls-85" d="M621.5,464.9s15.06,2.11,10.31,19.24C631.81,484.14,614.86,477.82,621.5,464.9Z"/><path class="cls-86" d="M603.8,448.37s14.32,8,2.88,23.36C606.68,471.73,592.1,458.78,603.8,448.37Z"/><path class="cls-87" d="M585.61,460.29s14.31,8,2.87,23.36C588.48,483.65,573.9,470.7,585.61,460.29Z"/><path class="cls-88" d="M574,472.12s11,12.65-5.39,23.41C568.61,495.53,559.14,478,574,472.12Z"/><path class="cls-89" d="M557.56,481.85s4.84,15.57-14,18.8C543.6,500.65,542,481.31,557.56,481.85Z"/><path class="cls-90" d="M539.08,477.07s-6,14.64-22.06,5.45C517,482.52,527.76,467.05,539.08,477.07Z"/><path class="cls-91" d="M551,467.19s-13.2,9.11-21.74-7.59C529.22,459.6,546.89,452.42,551,467.19Z"/><path class="cls-92" d="M572.05,451.09s-7.41,14.17-22.71,3.42C549.34,454.51,561.59,440,572.05,451.09Z"/><path class="cls-93" d="M580.87,429.27s-3.53,16.07-21.62,9.51C559.25,438.78,567.48,421,580.87,429.27Z"/><path class="cls-94" d="M675.67,413s6.62-15,23-5.06C698.69,407.94,687.15,423.69,675.67,413Z"/><path class="cls-95" d="M660.93,422.13s14.42-8.54,22.12,9.49C683.05,431.62,664.11,437.83,660.93,422.13Z"/><path class="cls-96" d="M640.11,426.58s15.14-3.76,17.19,14.37C657.3,441,638.74,441.43,640.11,426.58Z"/><path class="cls-97" d="M624,423s15.49,1.3,11.61,19.07C635.61,442,617.94,436.53,624,423Z"/><path class="cls-98" d="M315.37,675.19h9.49q.54.15,7.59,18.46,18.27,45.29,20.46,51.39v.14h-8.79q-.45,0-4.07-9.43-4-9.48-5.21-12.86H305.89q-8.53,22.29-8.93,22.29h-8.64L288,745,315,675.39Zm5.07,12.51-10.63,25.71h20.95L320.64,687.7Z"/><path class="cls-99" d="M344.07,674.84h9.28q.5.3,9.14,16.08,8.83,15.8,9.63,16.93,17.42-31.67,18.61-33H400c.23.07.34.18.34.35q-.64.84-24,41.45v28.2c0,.23-.1.34-.3.34H368.1c-.24,0-.35-.11-.35-.34v-27.7q0-.64-11.52-20.31L343.72,675Z"/><path class="cls-100" d="M407.86,675.14h7.94c.24.06.35.18.35.35v45.32q0,10.88,11.52,16.23a25,25,0,0,0,5.91,1q9.48,0,15.24-9.29a17.79,17.79,0,0,0,2-8.49V675.49c0-.24.15-.35.35-.35h7.94c.23.06.35.18.35.35v40.9q0,13-4.07,17.77-4,7.7-15.19,11.47a28.06,28.06,0,0,1-6.45.85h-.5q-13.8,0-22.29-13.16-3.37-5.61-3.38-15.09V675.49C407.6,675.25,407.7,675.14,407.86,675.14Z"/><path class="cls-101" d="M503.18,674.84h1q14.4,0,23.33,9.48a80.82,80.82,0,0,1-5.9,7.1q-2.14-3.27-9.83-5.76a43.36,43.36,0,0,0-9.29-1.34q-13.39,0-21.64,12.71a27.52,27.52,0,0,0-3.38,13.16q0,13.35,11.82,21.64a23.15,23.15,0,0,0,12,3.72h2.38q9.33,0,18.27-6.95.6.95,5.56,7.15-8.94,9.43-23.48,9.43h-.35q-21.89,0-32.31-19.6A37.82,37.82,0,0,1,467.88,710q0-17.62,15-29.09A34.64,34.64,0,0,1,503.18,674.84Z"/><path class="cls-102" d="M558.93,675.19h9.48q.54.15,7.6,18.46,18.25,45.29,20.45,51.39v.14h-8.79q-.45,0-4.07-9.43-4-9.48-5.21-12.86H549.45q-8.55,22.29-8.94,22.29h-8.64l-.35-.14,27.06-69.65ZM564,687.7l-10.62,25.71h21L564.19,687.7Z"/><path class="cls-103" d="M604.8,674.84h30.43q10.77,0,17.92,10.82A24.38,24.38,0,0,1,655.83,696q0,11.52-10.82,18.42a13.67,13.67,0,0,1-5.06,2q.15.79,16.23,28.4v.34h-9.63q-.75-.88-16.23-27.89H613.09v27.55a.31.31,0,0,1-.35.34H604.8a.31.31,0,0,1-.35-.34V675.19C604.48,675,604.6,674.84,604.8,674.84Zm8.29,8.64V708.7h20.75q10.23,0,13.21-10.53a16.7,16.7,0,0,1,.14-2.18q0-7.65-7.94-11.67a12.54,12.54,0,0,0-4-.84Z"/><path class="cls-104" d="M671.62,675.73h40.06c.23,0,.35.14.35.3V684a.31.31,0,0,1-.35.35H679.86V706h30.78c.23,0,.35.15.35.34v7.8c0,.2-.12.3-.35.3H679.86V736.6h31.82c.23,0,.35.13.35.29v8a.31.31,0,0,1-.35.34H671.62a.31.31,0,0,1-.35-.34V676A.32.32,0,0,1,671.62,675.73Z"/><path class="cls-105" d="M334,771.48a11.34,11.34,0,0,1,7.53,3v-2.75q0-.15.15-.15h3.19q.15,0,.15.15v21.75c0,.08-.05.13-.15.13H341.7c-.1,0-.15-.05-.15-.13v-2.77h-.06a11.08,11.08,0,0,1-7.55,2.9q-5.87,0-9.41-5.43a10.35,10.35,0,0,1-1.53-5.36v-.51q0-5.64,5.51-9.34A12.29,12.29,0,0,1,334,771.48Zm-7.53,10.94v.21a7.33,7.33,0,0,0,4,6.59,7.54,7.54,0,0,0,3.64.88q4.21,0,6.72-4.34a8.32,8.32,0,0,0,.66-3v-.44q0-4-4.06-6.45a7.16,7.16,0,0,0-3.11-.79h-.72c-2.6,0-4.72,1.35-6.38,4.05A7.8,7.8,0,0,0,326.49,782.42Z"/><path class="cls-105" d="M348.81,771.48h3.4c.16,0,.62,1.52,1.39,4.55q.27.74,3.4,12.05h.15q3.41-9.24,6.3-16.6h3.61c.1,0,.15.06.15.13l-9.7,25.23c-1.42,3.24-3.38,4.85-5.87,4.85a8.18,8.18,0,0,1-2.62-.51v-3.34l.06-.15a12.05,12.05,0,0,0,1.83.3c2,0,3.44-1.55,4.28-4.64l-6.53-21.81Z"/><path class="cls-105" d="M371,771.48h3.1c.1,0,.15.06.15.13v12.1c0,2.9,1,4.76,3,5.58A6,6,0,0,0,380,790a4.77,4.77,0,0,0,5-3.47,9.51,9.51,0,0,0,.09-1.09V771.61a.13.13,0,0,1,.14-.13h3.17c.1,0,.15.06.15.13v21.83c0,.08-.05.13-.15.13h-3.17a.12.12,0,0,1-.14-.13v-2.19A6.43,6.43,0,0,1,380,793.5h-.28a9.13,9.13,0,0,1-8-4.13,8.3,8.3,0,0,1-.94-3.91V771.61A.13.13,0,0,1,371,771.48Z"/><path class="cls-105" d="M392.32,771.4h3.28a.14.14,0,0,1,.14.14v2.39a11,11,0,0,1,7.09-2.45q.45.06.45.21A14.22,14.22,0,0,1,403,775l-.36-.08c-3.21,0-5.43,1.61-6.66,4.85a6.37,6.37,0,0,0-.22,1.38v12.26a.12.12,0,0,1-.14.13h-3.28a.12.12,0,0,1-.13-.13v-21.9C392.21,771.44,392.25,771.4,392.32,771.4Z"/><path class="cls-105" d="M406.89,771.48h3.64a18,18,0,0,1,1.66,3.68q3.1,7.11,5.79,13.64h.15q.36-1,7.25-17.32H429l.15.06q-9,21.29-9.28,21.9h-3.55c-.16,0-1.29-2.64-3.41-7.92q-4.49-10.17-6-14Z"/><path class="cls-105" d="M440.87,771.48a11,11,0,0,1,9,4.7,11.18,11.18,0,0,1,2,6.3c0,1.21-.12,1.81-.27,1.81H433.47a8.24,8.24,0,0,0,2.83,4.36,8.43,8.43,0,0,0,4.57,1.45,7.68,7.68,0,0,0,5.87-2.83h3.83q.15,0,.15.15-3.42,6.15-10,6.15a10.86,10.86,0,0,1-9-4.77,11,11,0,0,1-1.95-6.38,10.83,10.83,0,0,1,4.91-9.07A11.08,11.08,0,0,1,440.87,771.48Zm-7.4,9.34h14.72a7.2,7.2,0,0,0-2.4-3.91,6.76,6.76,0,0,0-4.56-1.88h-.8q-3.9,0-6.37,4.13A7.75,7.75,0,0,0,433.47,780.82Z"/><path class="cls-105" d="M474.19,763.8h3.26c.1,0,.15.06.15.13v29.51c0,.08-.05.13-.15.13h-3.26c-.1,0-.15-.05-.15-.13v-2.77a11.32,11.32,0,0,1-7.59,2.9q-5.83,0-9.43-5.43a11,11,0,0,1-1.53-5.66,10.81,10.81,0,0,1,4.72-9,10.94,10.94,0,0,1,6.3-2,11.12,11.12,0,0,1,7.53,3V763.93A.14.14,0,0,1,474.19,763.8ZM459,782.63c0,2.75,1.37,5,4.13,6.66a8.23,8.23,0,0,0,3.46.81c3,0,5.32-1.53,6.9-4.58a6.72,6.72,0,0,0,.57-2.59v-.81q0-3.72-3.91-6.24a7.29,7.29,0,0,0-3.19-.85h-.79q-3.7,0-6.24,3.83A8.33,8.33,0,0,0,459,782.63Z"/><path class="cls-105" d="M492.23,771.48a11.35,11.35,0,0,1,7.54,3v-2.75c0-.1.06-.15.14-.15h3.2c.09,0,.15.07.15.15v21.75a.13.13,0,0,1-.15.13h-3.2a.12.12,0,0,1-.14-.13v-2.77h-.07a11.06,11.06,0,0,1-7.55,2.9q-5.85,0-9.41-5.43a10.35,10.35,0,0,1-1.53-5.36v-.51q0-5.64,5.51-9.34A12.29,12.29,0,0,1,492.23,771.48Zm-7.53,10.94v.21a7.33,7.33,0,0,0,4,6.59,7.56,7.56,0,0,0,3.64.88q4.22,0,6.73-4.34a8.32,8.32,0,0,0,.66-3v-.44q0-4-4.07-6.45a7.16,7.16,0,0,0-3.1-.79h-.73q-3.89,0-6.38,4.05A7.8,7.8,0,0,0,484.7,782.42Z"/><path class="cls-105" d="M507,776.61h9.49c.1,0,.15,0,.15.13v3.85a.13.13,0,0,1-.15.15H507a.13.13,0,0,1-.15-.15v-3.85A.14.14,0,0,1,507,776.61Z"/><path class="cls-105" d="M520.43,771.48h3.4c.08,0,.77,2.06,2,6.09q.36,1.27,3,9.7H529q1.89-5.94,4.93-15.22L534,772h3c.1,0,1,2.76,2.77,8.28q1.81,5.49,2.23,7h.09l5-15.73.15-.06h3.32c.1,0,.15.06.15.13q-3.46,11.1-7,22h-3.13q-.24,0-1.66-4.86-.43-1.12-3.41-10.42h-.06q-.66,2.16-4.94,15.28h-3.1c-.17,0-.58-1.16-1.24-3.47q-2.55-7.65-6-18.56Z"/><path class="cls-105" d="M565.49,771.48a11,11,0,0,1,9,4.7,11.25,11.25,0,0,1,2,6.3c0,1.21-.12,1.81-.28,1.81H558.08a8.36,8.36,0,0,0,2.83,4.36,8.46,8.46,0,0,0,4.58,1.45,7.71,7.71,0,0,0,5.87-2.83h3.83q.15,0,.15.15-3.42,6.15-10,6.15a10.86,10.86,0,0,1-9-4.77,11.06,11.06,0,0,1-2-6.38q0-5.48,4.92-9.07A11.06,11.06,0,0,1,565.49,771.48Zm-7.41,9.34h14.73a7.16,7.16,0,0,0-2.41-3.91,6.72,6.72,0,0,0-4.55-1.88H565c-2.59,0-4.72,1.38-6.36,4.13A8.26,8.26,0,0,0,558.08,780.82Z"/><path class="cls-105" d="M580.26,763.69h3.4q.15,0,.15.15v29.7a.13.13,0,0,1-.15.15h-3.4a.13.13,0,0,1-.15-.15v-29.7Q580.13,763.69,580.26,763.69Z"/><path class="cls-105" d="M587.72,763.69h3.41q.15,0,.15.15v29.7a.13.13,0,0,1-.15.15h-3.41a.13.13,0,0,1-.15-.15v-29.7Q587.6,763.69,587.72,763.69Z"/><path class="cls-105" d="M595.87,771.48H599c.09,0,.13.06.13.13v2.19a6.71,6.71,0,0,1,5.3-2.26h.06a9.15,9.15,0,0,1,7.91,4,9.35,9.35,0,0,1,1.09,5.15v12.77c0,.08,0,.13-.15.13h-3.19c-.1,0-.15-.05-.15-.13V780.61c0-2.43-1.28-4.14-3.83-5.15a4,4,0,0,0-1.45-.21h-.44a5.24,5.24,0,0,0-3.71,1.72,5.85,5.85,0,0,0-1.44,4.15v12.32a.12.12,0,0,1-.13.13h-3.13c-.1,0-.15-.05-.15-.13V771.61A.14.14,0,0,1,595.87,771.48Z"/><path class="cls-105" d="M628.19,771.48a11,11,0,0,1,9,4.7,11.18,11.18,0,0,1,2,6.3c0,1.21-.12,1.81-.28,1.81H620.79a8.24,8.24,0,0,0,2.83,4.36,8.43,8.43,0,0,0,4.57,1.45,7.68,7.68,0,0,0,5.87-2.83h3.83q.15,0,.15.15-3.42,6.15-10,6.15a10.86,10.86,0,0,1-9-4.77,11,11,0,0,1-1.95-6.38q0-5.48,4.91-9.07A11.08,11.08,0,0,1,628.19,771.48Zm-7.4,9.34h14.72a7.2,7.2,0,0,0-2.4-3.91,6.76,6.76,0,0,0-4.56-1.88h-.81q-3.88,0-6.36,4.13A7.75,7.75,0,0,0,620.79,780.82Z"/><path class="cls-105" d="M648.89,771.48q5.34,0,8,5.28l-3,1.68a6.54,6.54,0,0,0-2.89-3,4.24,4.24,0,0,0-1.81-.52h-.51c-1.84,0-3,.73-3.47,2.17a2.59,2.59,0,0,0-.08.66q0,2.37,7.46,4,4.21,1.32,4.22,5.44c0,2.93-1.5,4.9-4.49,5.94a13.24,13.24,0,0,1-3.19.43,9.27,9.27,0,0,1-8.77-5.13v-.3a32.77,32.77,0,0,1,3-1.6,5.87,5.87,0,0,0,5.64,3.62h.24c2.26,0,3.59-.79,4-2.38v-.51c0-1.55-2-2.78-5.93-3.71-2.85-.87-4.62-2-5.3-3.31a5.9,5.9,0,0,1-.51-2.32v-.36q0-4.16,5.09-5.81A11.39,11.39,0,0,1,648.89,771.48Z"/><path class="cls-105" d="M669,771.48q5.34,0,8,5.28l-3,1.68a6.54,6.54,0,0,0-2.89-3,4.24,4.24,0,0,0-1.81-.52h-.51c-1.85,0-3,.73-3.47,2.17a2.21,2.21,0,0,0-.08.66c0,1.58,2.48,2.93,7.46,4q4.21,1.32,4.22,5.44c0,2.93-1.5,4.9-4.49,5.94a13.24,13.24,0,0,1-3.19.43,9.27,9.27,0,0,1-8.77-5.13v-.3a31.31,31.31,0,0,1,3-1.6,5.85,5.85,0,0,0,5.64,3.62h.23q3.4,0,4-2.38v-.51c0-1.55-2-2.78-5.93-3.71-2.85-.87-4.62-2-5.3-3.31a5.9,5.9,0,0,1-.51-2.32v-.36q0-4.16,5.08-5.81A11.6,11.6,0,0,1,669,771.48Z"/></g></svg>